<?xml version="1.0" encoding="UTF-8" standalone="no"?>
<!-- Created with Inkscape (http://www.inkscape.org/) -->

<svg
   width="210mm"
   height="297mm"
   viewBox="0 0 210 297"
   version="1.1"
   id="svg5"
   inkscape:version="1.1 (c68e22c387, 2021-05-23)"
   sodipodi:docname="drawing 1 id card egg.svg"
   xmlns:inkscape="http://www.inkscape.org/namespaces/inkscape"
   xmlns:sodipodi="http://sodipodi.sourceforge.net/DTD/sodipodi-0.dtd"
   xmlns:xlink="http://www.w3.org/1999/xlink"
   xmlns="http://www.w3.org/2000/svg"
   xmlns:svg="http://www.w3.org/2000/svg">
  <sodipodi:namedview
     id="namedview7"
     pagecolor="#ffffff"
     bordercolor="#666666"
     borderopacity="1.0"
     inkscape:pageshadow="2"
     inkscape:pageopacity="0.0"
     inkscape:pagecheckerboard="0"
     inkscape:document-units="mm"
     showgrid="false"
     inkscape:zoom="0.36168631"
     inkscape:cx="940.04112"
     inkscape:cy="635.91017"
     inkscape:window-width="1482"
     inkscape:window-height="1030"
     inkscape:window-x="248"
     inkscape:window-y="0"
     inkscape:window-maximized="0"
     inkscape:current-layer="layer1"
     inkscape:snap-object-midpoints="false"
     inkscape:snap-center="false"
     inkscape:snap-others="false"
     inkscape:snap-grids="true" />
  <defs
     id="defs2">
    <inkscape:path-effect
       effect="bspline"
       id="path-effect1128"
       is_visible="true"
       lpeversion="1"
       weight="33.333333"
       steps="2"
       helper_size="0"
       apply_no_weight="true"
       apply_with_weight="true"
       only_selected="false" />
    <inkscape:path-effect
       effect="powerstroke"
       id="path-effect1056"
       is_visible="true"
       lpeversion="1"
       offset_points="0.5,0.5"
       not_jump="true"
       sort_points="true"
       interpolator_type="CentripetalCatmullRom"
       interpolator_beta="0.75"
       start_linecap_type="round"
       linejoin_type="spiro"
       miter_limit="4"
       scale_width="1"
       end_linecap_type="round" />
    <inkscape:path-effect
       effect="simplify"
       id="path-effect1054"
       is_visible="true"
       lpeversion="1"
       steps="1"
       threshold="0.0032025118"
       smooth_angles="0"
       helper_size="0"
       simplify_individual_paths="false"
       simplify_just_coalesce="false"
       step="1" />
    <inkscape:path-effect
       effect="skeletal"
       id="path-effect33635"
       is_visible="true"
       lpeversion="1"
       pattern="m 97.246338,232.41169 c -4.622099,-2.00016 -10.972046,-5.37285 -13.117308,-6.96708 -1.137989,-0.84569 -4.52019,-3.98955 -7.515998,-6.98634 -6.087816,-6.08982 -7.641664,-8.13999 -10.204791,-13.46437 -4.276796,-8.88418 -6.680205,-17.52345 -7.483441,-26.89992 -0.562961,-6.57164 -0.242196,-26.54067 0.473374,-29.46979 0.16986,-0.6953 0.227272,-0.60546 0.661136,1.03454 1.829533,6.91564 6.768513,20.30387 11.014652,29.85773 7.789156,17.52569 12.652954,26.68203 25.107095,47.26534 2.259309,3.73403 4.021623,6.78724 3.916243,6.78492 -0.105383,-0.002 -1.388313,-0.52209 -2.850962,-1.15503 z"
       copytype="single_stretched"
       prop_scale="1"
       scale_y_rel="false"
       spacing="0"
       normal_offset="0"
       tang_offset="0"
       prop_units="false"
       vertical_pattern="false"
       hide_knot="false"
       fuse_tolerance="0" />
    <inkscape:path-effect
       effect="bspline"
       id="path-effect33581"
       is_visible="true"
       lpeversion="1"
       weight="33.333333"
       steps="2"
       helper_size="0"
       apply_no_weight="true"
       apply_with_weight="true"
       only_selected="false" />
    <inkscape:path-effect
       effect="skeletal"
       id="path-effect33544"
       is_visible="true"
       lpeversion="1"
       pattern="m 97.246338,232.41169 c -4.622099,-2.00016 -10.972046,-5.37285 -13.117308,-6.96708 -1.137989,-0.84569 -4.52019,-3.98955 -7.515998,-6.98634 -6.087816,-6.08982 -7.641664,-8.13999 -10.204791,-13.46437 -4.276796,-8.88418 -6.680205,-17.52345 -7.483441,-26.89992 -0.562961,-6.57164 -0.242196,-26.54067 0.473374,-29.46979 0.16986,-0.6953 0.227272,-0.60546 0.661136,1.03454 1.829533,6.91564 6.768513,20.30387 11.014652,29.85773 7.789156,17.52569 12.652954,26.68203 25.107095,47.26534 2.259309,3.73403 4.021623,6.78724 3.916243,6.78492 -0.105383,-0.002 -1.388313,-0.52209 -2.850962,-1.15503 z"
       copytype="single_stretched"
       prop_scale="1"
       scale_y_rel="false"
       spacing="0"
       normal_offset="0"
       tang_offset="0"
       prop_units="false"
       vertical_pattern="false"
       hide_knot="false"
       fuse_tolerance="0" />
    <inkscape:path-effect
       effect="bspline"
       id="path-effect33490"
       is_visible="true"
       lpeversion="1"
       weight="33.333333"
       steps="2"
       helper_size="0"
       apply_no_weight="true"
       apply_with_weight="true"
       only_selected="false" />
    <inkscape:path-effect
       effect="skeletal"
       id="path-effect33453"
       is_visible="true"
       lpeversion="1"
       pattern="m 97.246338,232.41169 c -4.622099,-2.00016 -10.972046,-5.37285 -13.117308,-6.96708 -1.137989,-0.84569 -4.52019,-3.98955 -7.515998,-6.98634 -6.087816,-6.08982 -7.641664,-8.13999 -10.204791,-13.46437 -4.276796,-8.88418 -6.680205,-17.52345 -7.483441,-26.89992 -0.562961,-6.57164 -0.242196,-26.54067 0.473374,-29.46979 0.16986,-0.6953 0.227272,-0.60546 0.661136,1.03454 1.829533,6.91564 6.768513,20.30387 11.014652,29.85773 7.789156,17.52569 12.652954,26.68203 25.107095,47.26534 2.259309,3.73403 4.021623,6.78724 3.916243,6.78492 -0.105383,-0.002 -1.388313,-0.52209 -2.850962,-1.15503 z"
       copytype="single_stretched"
       prop_scale="1"
       scale_y_rel="false"
       spacing="0"
       normal_offset="0"
       tang_offset="0"
       prop_units="false"
       vertical_pattern="false"
       hide_knot="false"
       fuse_tolerance="0" />
    <inkscape:path-effect
       effect="bspline"
       id="path-effect33399"
       is_visible="true"
       lpeversion="1"
       weight="33.333333"
       steps="2"
       helper_size="0"
       apply_no_weight="true"
       apply_with_weight="true"
       only_selected="false" />
    <inkscape:path-effect
       effect="skeletal"
       id="path-effect24152"
       is_visible="true"
       lpeversion="1"
       pattern="m -1.7448859,68.992375 c 0,-2.65966 2.13638997,-4.81823 4.76874,-4.81823 2.63234,0 4.76874,2.15857 4.76874,4.81823 0,2.65967 -2.1364,4.81824 -4.76874,4.81824 -2.63235003,0 -4.76874,-2.15857 -4.76874,-4.81824 z"
       copytype="single_stretched"
       prop_scale="1"
       scale_y_rel="false"
       spacing="0"
       normal_offset="0"
       tang_offset="0"
       prop_units="false"
       vertical_pattern="false"
       hide_knot="false"
       fuse_tolerance="0" />
    <inkscape:path-effect
       effect="bspline"
       id="path-effect24150"
       is_visible="true"
       lpeversion="1"
       weight="33.333333"
       steps="2"
       helper_size="0"
       apply_no_weight="true"
       apply_with_weight="true"
       only_selected="false" />
    <inkscape:path-effect
       effect="skeletal"
       id="path-effect24146"
       is_visible="true"
       lpeversion="1"
       pattern="m -1.0800259,69.797295 c 0,-2.65966 2.13639,-4.81823 4.76874,-4.81823 2.63234,0 4.76874,2.15857 4.76874,4.81823 0,2.65967 -2.1364,4.81824 -4.76874,4.81824 -2.63235,0 -4.76874,-2.15857 -4.76874,-4.81824 z"
       copytype="single_stretched"
       prop_scale="1"
       scale_y_rel="false"
       spacing="0"
       normal_offset="0"
       tang_offset="0"
       prop_units="false"
       vertical_pattern="false"
       hide_knot="false"
       fuse_tolerance="0" />
    <inkscape:path-effect
       effect="bspline"
       id="path-effect24144"
       is_visible="true"
       lpeversion="1"
       weight="33.333333"
       steps="2"
       helper_size="0"
       apply_no_weight="true"
       apply_with_weight="true"
       only_selected="false" />
    <inkscape:path-effect
       effect="skeletal"
       id="path-effect24140"
       is_visible="true"
       lpeversion="1"
       pattern="m -1.0800259,69.797295 c 0,-2.65966 2.13639,-4.81823 4.76874,-4.81823 2.63234,0 4.76874,2.15857 4.76874,4.81823 0,2.65967 -2.1364,4.81824 -4.76874,4.81824 -2.63235,0 -4.76874,-2.15857 -4.76874,-4.81824 z"
       copytype="single_stretched"
       prop_scale="1"
       scale_y_rel="false"
       spacing="0"
       normal_offset="0"
       tang_offset="0"
       prop_units="false"
       vertical_pattern="false"
       hide_knot="false"
       fuse_tolerance="0" />
    <inkscape:path-effect
       effect="bspline"
       id="path-effect24138"
       is_visible="true"
       lpeversion="1"
       weight="33.333333"
       steps="2"
       helper_size="0"
       apply_no_weight="true"
       apply_with_weight="true"
       only_selected="false" />
    <inkscape:path-effect
       effect="skeletal"
       id="path-effect24134"
       is_visible="true"
       lpeversion="1"
       pattern="m -1.0800259,69.797295 c 0,-2.65966 2.13639,-4.81823 4.76874,-4.81823 2.63234,0 4.76874,2.15857 4.76874,4.81823 0,2.65967 -2.1364,4.81824 -4.76874,4.81824 -2.63235,0 -4.76874,-2.15857 -4.76874,-4.81824 z"
       copytype="single_stretched"
       prop_scale="1"
       scale_y_rel="false"
       spacing="0"
       normal_offset="0"
       tang_offset="0"
       prop_units="false"
       vertical_pattern="false"
       hide_knot="false"
       fuse_tolerance="0" />
    <inkscape:path-effect
       effect="bspline"
       id="path-effect24132"
       is_visible="true"
       lpeversion="1"
       weight="33.333333"
       steps="2"
       helper_size="0"
       apply_no_weight="true"
       apply_with_weight="true"
       only_selected="false" />
    <inkscape:path-effect
       effect="skeletal"
       id="path-effect24128"
       is_visible="true"
       lpeversion="1"
       pattern="m -1.0800259,69.797295 c 0,-2.65966 2.13639,-4.81823 4.76874,-4.81823 2.63234,0 4.76874,2.15857 4.76874,4.81823 0,2.65967 -2.1364,4.81824 -4.76874,4.81824 -2.63235,0 -4.76874,-2.15857 -4.76874,-4.81824 z"
       copytype="single_stretched"
       prop_scale="1"
       scale_y_rel="false"
       spacing="0"
       normal_offset="0"
       tang_offset="0"
       prop_units="false"
       vertical_pattern="false"
       hide_knot="false"
       fuse_tolerance="0" />
    <inkscape:path-effect
       effect="bspline"
       id="path-effect24126"
       is_visible="true"
       lpeversion="1"
       weight="33.333333"
       steps="2"
       helper_size="0"
       apply_no_weight="true"
       apply_with_weight="true"
       only_selected="false" />
    <inkscape:path-effect
       effect="powerstroke"
       id="path-effect16762"
       is_visible="true"
       lpeversion="1"
       offset_points="1.2342767,0.45462987"
       not_jump="true"
       sort_points="true"
       interpolator_type="CentripetalCatmullRom"
       interpolator_beta="0.75"
       start_linecap_type="round"
       linejoin_type="spiro"
       miter_limit="4"
       scale_width="1"
       end_linecap_type="round" />
    <inkscape:path-effect
       effect="simplify"
       id="path-effect16760"
       is_visible="true"
       lpeversion="1"
       steps="1"
       threshold="0.0032025118"
       smooth_angles="0"
       helper_size="0"
       simplify_individual_paths="false"
       simplify_just_coalesce="false"
       step="1" />
    <inkscape:path-effect
       effect="powerstroke"
       id="path-effect16722"
       is_visible="true"
       lpeversion="1"
       offset_points="5.9779935,0.45462987"
       not_jump="true"
       sort_points="true"
       interpolator_type="CentripetalCatmullRom"
       interpolator_beta="0.75"
       start_linecap_type="round"
       linejoin_type="spiro"
       miter_limit="4"
       scale_width="1"
       end_linecap_type="round" />
    <inkscape:path-effect
       effect="simplify"
       id="path-effect16720"
       is_visible="true"
       lpeversion="1"
       steps="1"
       threshold="0.0032025118"
       smooth_angles="0"
       helper_size="0"
       simplify_individual_paths="false"
       simplify_just_coalesce="false"
       step="1" />
    <inkscape:path-effect
       effect="powerstroke"
       id="path-effect16715"
       is_visible="true"
       lpeversion="1"
       offset_points="0.53248051,0.32147186"
       not_jump="true"
       sort_points="true"
       interpolator_type="CentripetalCatmullRom"
       interpolator_beta="0.75"
       start_linecap_type="round"
       linejoin_type="spiro"
       miter_limit="4"
       scale_width="1"
       end_linecap_type="round" />
    <inkscape:path-effect
       effect="simplify"
       id="path-effect16713"
       is_visible="true"
       lpeversion="1"
       steps="1"
       threshold="0.0032025118"
       smooth_angles="0"
       helper_size="0"
       simplify_individual_paths="false"
       simplify_just_coalesce="false"
       step="1" />
    <inkscape:path-effect
       effect="powerstroke"
       id="path-effect16675"
       is_visible="true"
       lpeversion="1"
       offset_points="0.42212889,0.32147186"
       not_jump="true"
       sort_points="true"
       interpolator_type="CentripetalCatmullRom"
       interpolator_beta="0.75"
       start_linecap_type="round"
       linejoin_type="spiro"
       miter_limit="4"
       scale_width="1"
       end_linecap_type="round" />
    <inkscape:path-effect
       effect="simplify"
       id="path-effect16673"
       is_visible="true"
       lpeversion="1"
       steps="1"
       threshold="0.0032025118"
       smooth_angles="0"
       helper_size="0"
       simplify_individual_paths="false"
       simplify_just_coalesce="false"
       step="1" />
    <inkscape:path-effect
       effect="skeletal"
       id="path-effect16604"
       is_visible="true"
       lpeversion="1"
       pattern="M 0,4.9921382 C 0,2.2364779 2.2364779,0 4.9921382,0 c 2.7556604,0 4.9921383,2.2364779 4.9921383,4.9921382 0,2.7556604 -2.2364779,4.9921383 -4.9921383,4.9921383 C 2.2364779,9.9842765 0,7.7477986 0,4.9921382 Z"
       copytype="single_stretched"
       prop_scale="1"
       scale_y_rel="false"
       spacing="0"
       normal_offset="0"
       tang_offset="0"
       prop_units="false"
       vertical_pattern="false"
       hide_knot="false"
       fuse_tolerance="0" />
    <inkscape:path-effect
       effect="bspline"
       id="path-effect16602"
       is_visible="true"
       lpeversion="1"
       weight="33.333333"
       steps="2"
       helper_size="0"
       apply_no_weight="true"
       apply_with_weight="true"
       only_selected="false" />
    <inkscape:path-effect
       effect="skeletal"
       id="path-effect16565"
       is_visible="true"
       lpeversion="1"
       pattern="m 105.50976,83.583319 c 0,-1.052058 1.09048,-1.905913 2.4341,-1.905913 1.34362,0 2.4341,0.853855 2.4341,1.905913 0,1.052057 -1.09048,1.905903 -2.4341,1.905903 -1.34362,0 -2.4341,-0.853846 -2.4341,-1.905903 z"
       copytype="single_stretched"
       prop_scale="1"
       scale_y_rel="false"
       spacing="0"
       normal_offset="0"
       tang_offset="0"
       prop_units="false"
       vertical_pattern="false"
       hide_knot="false"
       fuse_tolerance="0" />
    <inkscape:path-effect
       effect="bspline"
       id="path-effect16563"
       is_visible="true"
       lpeversion="1"
       weight="33.333333"
       steps="2"
       helper_size="0"
       apply_no_weight="true"
       apply_with_weight="true"
       only_selected="false" />
    <inkscape:path-effect
       effect="skeletal"
       id="path-effect16526"
       is_visible="true"
       lpeversion="1"
       pattern="M 0,4.9921382 C 0,2.2364779 2.2364779,0 4.9921382,0 c 2.7556604,0 4.9921383,2.2364779 4.9921383,4.9921382 0,2.7556604 -2.2364779,4.9921383 -4.9921383,4.9921383 C 2.2364779,9.9842765 0,7.7477986 0,4.9921382 Z"
       copytype="single_stretched"
       prop_scale="1"
       scale_y_rel="false"
       spacing="0"
       normal_offset="0"
       tang_offset="0"
       prop_units="false"
       vertical_pattern="false"
       hide_knot="false"
       fuse_tolerance="0" />
    <inkscape:path-effect
       effect="bspline"
       id="path-effect16524"
       is_visible="true"
       lpeversion="1"
       weight="33.333333"
       steps="2"
       helper_size="0"
       apply_no_weight="true"
       apply_with_weight="true"
       only_selected="false" />
    <inkscape:path-effect
       effect="skeletal"
       id="path-effect16520"
       is_visible="true"
       lpeversion="1"
       pattern="m 105.96827,83.153985 c 0,-1.052067 1.09048,-1.905912 2.4341,-1.905912 1.34362,0 2.4341,0.853845 2.4341,1.905912 0,1.052058 -1.09048,1.905903 -2.4341,1.905903 -1.34362,0 -2.4341,-0.853845 -2.4341,-1.905903 z"
       copytype="single_stretched"
       prop_scale="1"
       scale_y_rel="false"
       spacing="0"
       normal_offset="0"
       tang_offset="0"
       prop_units="false"
       vertical_pattern="false"
       hide_knot="false"
       fuse_tolerance="0" />
    <inkscape:path-effect
       effect="bspline"
       id="path-effect16518"
       is_visible="true"
       lpeversion="1"
       weight="33.333333"
       steps="2"
       helper_size="0"
       apply_no_weight="true"
       apply_with_weight="true"
       only_selected="false" />
    <inkscape:path-effect
       effect="bspline"
       id="path-effect16074"
       is_visible="true"
       lpeversion="1"
       weight="33.333333"
       steps="2"
       helper_size="0"
       apply_no_weight="true"
       apply_with_weight="true"
       only_selected="false" />
    <inkscape:path-effect
       effect="powerstroke"
       id="path-effect15924"
       is_visible="true"
       lpeversion="1"
       offset_points="5,4.99214"
       not_jump="false"
       sort_points="true"
       interpolator_type="CubicBezierJohan"
       interpolator_beta="0.2"
       start_linecap_type="zerowidth"
       linejoin_type="extrp_arc"
       miter_limit="4"
       scale_width="1"
       end_linecap_type="zerowidth" />
    <inkscape:path-effect
       effect="bspline"
       id="path-effect15922"
       is_visible="true"
       lpeversion="1"
       weight="33.333333"
       steps="2"
       helper_size="0"
       apply_no_weight="true"
       apply_with_weight="true"
       only_selected="false" />
    <inkscape:path-effect
       effect="powerstroke"
       id="path-effect15725"
       is_visible="true"
       lpeversion="1"
       offset_points="3,4.99214"
       not_jump="false"
       sort_points="true"
       interpolator_type="CubicBezierJohan"
       interpolator_beta="0.2"
       start_linecap_type="zerowidth"
       linejoin_type="extrp_arc"
       miter_limit="4"
       scale_width="1"
       end_linecap_type="zerowidth" />
    <inkscape:path-effect
       effect="bspline"
       id="path-effect15723"
       is_visible="true"
       lpeversion="1"
       weight="33.333333"
       steps="2"
       helper_size="0"
       apply_no_weight="true"
       apply_with_weight="true"
       only_selected="false" />
    <inkscape:path-effect
       effect="powerstroke"
       id="path-effect15719"
       is_visible="true"
       lpeversion="1"
       offset_points="4,4.99214"
       not_jump="false"
       sort_points="true"
       interpolator_type="CubicBezierJohan"
       interpolator_beta="0.2"
       start_linecap_type="zerowidth"
       linejoin_type="extrp_arc"
       miter_limit="4"
       scale_width="1"
       end_linecap_type="zerowidth" />
    <inkscape:path-effect
       effect="bspline"
       id="path-effect15717"
       is_visible="true"
       lpeversion="1"
       weight="33.333333"
       steps="2"
       helper_size="0"
       apply_no_weight="true"
       apply_with_weight="true"
       only_selected="false" />
    <inkscape:path-effect
       effect="powerstroke"
       id="path-effect8999"
       is_visible="true"
       lpeversion="1"
       offset_points="8,4.99214"
       not_jump="false"
       sort_points="true"
       interpolator_type="CubicBezierJohan"
       interpolator_beta="0.2"
       start_linecap_type="zerowidth"
       linejoin_type="extrp_arc"
       miter_limit="4"
       scale_width="1"
       end_linecap_type="zerowidth" />
    <inkscape:path-effect
       effect="bspline"
       id="path-effect8997"
       is_visible="true"
       lpeversion="1"
       weight="33.333333"
       steps="2"
       helper_size="0"
       apply_no_weight="true"
       apply_with_weight="true"
       only_selected="false" />
    <inkscape:path-effect
       effect="powerstroke"
       id="path-effect8960"
       is_visible="true"
       lpeversion="1"
       offset_points="7,4.99214"
       not_jump="false"
       sort_points="true"
       interpolator_type="CubicBezierJohan"
       interpolator_beta="0.2"
       start_linecap_type="zerowidth"
       linejoin_type="extrp_arc"
       miter_limit="4"
       scale_width="1"
       end_linecap_type="zerowidth" />
    <inkscape:path-effect
       effect="bspline"
       id="path-effect8958"
       is_visible="true"
       lpeversion="1"
       weight="33.333333"
       steps="2"
       helper_size="0"
       apply_no_weight="true"
       apply_with_weight="true"
       only_selected="false" />
    <inkscape:path-effect
       effect="skeletal"
       id="path-effect5126"
       is_visible="true"
       lpeversion="1"
       pattern="M 0,4.9921382 C 0,2.2364779 2.2364779,0 4.9921382,0 c 2.7556604,0 4.9921383,2.2364779 4.9921383,4.9921382 0,2.7556604 -2.2364779,4.9921383 -4.9921383,4.9921383 C 2.2364779,9.9842765 0,7.7477986 0,4.9921382 Z"
       copytype="single_stretched"
       prop_scale="1"
       scale_y_rel="false"
       spacing="0"
       normal_offset="0"
       tang_offset="0"
       prop_units="false"
       vertical_pattern="false"
       hide_knot="false"
       fuse_tolerance="0" />
    <inkscape:path-effect
       effect="bspline"
       id="path-effect5124"
       is_visible="true"
       lpeversion="1"
       weight="33.333333"
       steps="2"
       helper_size="0"
       apply_no_weight="true"
       apply_with_weight="true"
       only_selected="false" />
    <inkscape:path-effect
       effect="skeletal"
       id="path-effect4894"
       is_visible="true"
       lpeversion="1"
       pattern="M 0,4.9921382 C 0,2.2364779 2.2364779,0 4.9921382,0 c 2.7556604,0 4.9921383,2.2364779 4.9921383,4.9921382 0,2.7556604 -2.2364779,4.9921383 -4.9921383,4.9921383 C 2.2364779,9.9842765 0,7.7477986 0,4.9921382 Z"
       copytype="single_stretched"
       prop_scale="1"
       scale_y_rel="false"
       spacing="0"
       normal_offset="0"
       tang_offset="0"
       prop_units="false"
       vertical_pattern="false"
       hide_knot="false"
       fuse_tolerance="0" />
    <inkscape:path-effect
       effect="bspline"
       id="path-effect4892"
       is_visible="true"
       lpeversion="1"
       weight="33.333333"
       steps="2"
       helper_size="0"
       apply_no_weight="true"
       apply_with_weight="true"
       only_selected="false" />
    <inkscape:path-effect
       effect="skeletal"
       id="path-effect4855"
       is_visible="true"
       lpeversion="1"
       pattern="M 0,4.9921382 C 0,2.2364779 2.2364779,0 4.9921382,0 c 2.7556604,0 4.9921383,2.2364779 4.9921383,4.9921382 0,2.7556604 -2.2364779,4.9921383 -4.9921383,4.9921383 C 2.2364779,9.9842765 0,7.7477986 0,4.9921382 Z"
       copytype="single_stretched"
       prop_scale="1"
       scale_y_rel="false"
       spacing="0"
       normal_offset="0"
       tang_offset="0"
       prop_units="false"
       vertical_pattern="false"
       hide_knot="false"
       fuse_tolerance="0" />
    <inkscape:path-effect
       effect="skeletal"
       id="path-effect4818"
       is_visible="true"
       lpeversion="1"
       pattern="M 0,4.9921382 C 0,2.2364779 2.2364779,0 4.9921382,0 c 2.7556604,0 4.9921383,2.2364779 4.9921383,4.9921382 0,2.7556604 -2.2364779,4.9921383 -4.9921383,4.9921383 C 2.2364779,9.9842765 0,7.7477986 0,4.9921382 Z"
       copytype="single_stretched"
       prop_scale="1"
       scale_y_rel="false"
       spacing="0"
       normal_offset="0"
       tang_offset="0"
       prop_units="false"
       vertical_pattern="false"
       hide_knot="false"
       fuse_tolerance="0" />
    <inkscape:path-effect
       effect="powerstroke"
       id="path-effect4746"
       is_visible="true"
       lpeversion="1"
       offset_points="0.5,0.5"
       not_jump="true"
       sort_points="true"
       interpolator_type="CentripetalCatmullRom"
       interpolator_beta="0.75"
       start_linecap_type="round"
       linejoin_type="spiro"
       miter_limit="4"
       scale_width="1"
       end_linecap_type="round" />
    <inkscape:path-effect
       effect="simplify"
       id="path-effect4744"
       is_visible="true"
       lpeversion="1"
       steps="1"
       threshold="0.0032025118"
       smooth_angles="0"
       helper_size="0"
       simplify_individual_paths="false"
       simplify_just_coalesce="false"
       step="1" />
    <inkscape:path-effect
       effect="skeletal"
       id="path-effect4447"
       is_visible="true"
       lpeversion="1"
       pattern="M 0,4.9921382 C 0,2.2364779 2.2364779,0 4.9921382,0 c 2.7556604,0 4.9921383,2.2364779 4.9921383,4.9921382 0,2.7556604 -2.2364779,4.9921383 -4.9921383,4.9921383 C 2.2364779,9.9842765 0,7.7477986 0,4.9921382 Z"
       copytype="single_stretched"
       prop_scale="1"
       scale_y_rel="false"
       spacing="0"
       normal_offset="0"
       tang_offset="0"
       prop_units="false"
       vertical_pattern="false"
       hide_knot="false"
       fuse_tolerance="0" />
    <inkscape:path-effect
       effect="skeletal"
       id="path-effect4443"
       is_visible="true"
       lpeversion="1"
       pattern="M 0,4.9921382 C 0,2.2364779 2.2364779,0 4.9921382,0 c 2.7556604,0 4.9921383,2.2364779 4.9921383,4.9921382 0,2.7556604 -2.2364779,4.9921383 -4.9921383,4.9921383 C 2.2364779,9.9842765 0,7.7477986 0,4.9921382 Z"
       copytype="single_stretched"
       prop_scale="1"
       scale_y_rel="false"
       spacing="0"
       normal_offset="0"
       tang_offset="0"
       prop_units="false"
       vertical_pattern="false"
       hide_knot="false"
       fuse_tolerance="0" />
    <inkscape:path-effect
       effect="skeletal"
       id="path-effect4439"
       is_visible="true"
       lpeversion="1"
       pattern="M 0,4.9921382 C 0,2.2364779 2.2364779,0 4.9921382,0 c 2.7556604,0 4.9921383,2.2364779 4.9921383,4.9921382 0,2.7556604 -2.2364779,4.9921383 -4.9921383,4.9921383 C 2.2364779,9.9842765 0,7.7477986 0,4.9921382 Z"
       copytype="single_stretched"
       prop_scale="1"
       scale_y_rel="false"
       spacing="0"
       normal_offset="0"
       tang_offset="0"
       prop_units="false"
       vertical_pattern="false"
       hide_knot="false"
       fuse_tolerance="0" />
    <inkscape:path-effect
       effect="skeletal"
       id="path-effect4435"
       is_visible="true"
       lpeversion="1"
       pattern="M 0,4.9921382 C 0,2.2364779 2.2364779,0 4.9921382,0 c 2.7556604,0 4.9921383,2.2364779 4.9921383,4.9921382 0,2.7556604 -2.2364779,4.9921383 -4.9921383,4.9921383 C 2.2364779,9.9842765 0,7.7477986 0,4.9921382 Z"
       copytype="single_stretched"
       prop_scale="1"
       scale_y_rel="false"
       spacing="0"
       normal_offset="0"
       tang_offset="0"
       prop_units="false"
       vertical_pattern="false"
       hide_knot="false"
       fuse_tolerance="0" />
    <filter
       inkscape:collect="always"
       style="color-interpolation-filters:sRGB;"
       id="filter24309"
       x="-0.12970178"
       y="-0.062373263"
       width="1.2649841"
       height="1.1265801"
       inkscape:label="Blur">
      <feGaussianBlur
         inkscape:collect="always"
         stdDeviation="3.0030534"
         id="feGaussianBlur24311"
         result="fbSourceGraphic" />
      <feColorMatrix
         result="fbSourceGraphicAlpha"
         in="fbSourceGraphic"
         values="0 0 0 -1 0 0 0 0 -1 0 0 0 0 -1 0 0 0 0 1 0"
         id="feColorMatrix31225" />
      <feGaussianBlur
         id="feGaussianBlur31227"
         stdDeviation="2 2"
         result="fbSourceGraphic"
         in="fbSourceGraphic" />
      <feColorMatrix
         result="fbSourceGraphicAlpha"
         in="fbSourceGraphic"
         values="0 0 0 -1 0 0 0 0 -1 0 0 0 0 -1 0 0 0 0 1 0"
         id="feColorMatrix31247" />
      <feGaussianBlur
         id="feGaussianBlur31249"
         stdDeviation="2 2"
         result="fbSourceGraphic"
         in="fbSourceGraphic" />
      <feColorMatrix
         result="fbSourceGraphicAlpha"
         in="fbSourceGraphic"
         values="0 0 0 -1 0 0 0 0 -1 0 0 0 0 -1 0 0 0 0 1 0"
         id="feColorMatrix31269" />
      <feGaussianBlur
         id="feGaussianBlur31271"
         stdDeviation="2 2"
         result="fbSourceGraphic"
         in="fbSourceGraphic" />
      <feColorMatrix
         result="fbSourceGraphicAlpha"
         in="fbSourceGraphic"
         values="0 0 0 -1 0 0 0 0 -1 0 0 0 0 -1 0 0 0 0 1 0"
         id="feColorMatrix31291" />
      <feGaussianBlur
         id="feGaussianBlur31293"
         stdDeviation="2 2"
         result="blur"
         in="fbSourceGraphic" />
    </filter>
    <filter
       inkscape:collect="always"
       style="color-interpolation-filters:sRGB"
       id="filter33169"
       x="-1.6522578"
       y="-0.80609642"
       width="4.313981"
       height="2.617868">
      <feGaussianBlur
         inkscape:collect="always"
         stdDeviation="107.66285"
         id="feGaussianBlur33171" />
    </filter>
  </defs>
  <g
     inkscape:label="Layer 1"
     inkscape:groupmode="layer"
     id="layer1">
    <text
       xml:space="preserve"
       style="font-style:normal;font-weight:normal;font-size:10.5833px;line-height:1.25;font-family:sans-serif;fill:#000000;fill-opacity:1;stroke:none;stroke-width:0.264583"
       x="16.825123"
       y="253.10837"
       id="text12259"><tspan
         sodipodi:role="line"
         id="tspan12257"
         style="stroke-width:0.264583"
         x="16.825123"
         y="253.10837" /></text>
    <path
       style="fill:#000000;stroke:none;stroke-width:0.264583px;stroke-linecap:butt;stroke-linejoin:miter;stroke-opacity:1"
       d="m 140.06116,119.46338 c -0.14414,-0.17775 1.15211,-1.77246 4.40843,-3.40127 3.19641,-1.59885 8.66884,-3.17743 15.42057,-1.9287 6.42468,1.17303 13.98197,4.80688 19.53485,11.94009 4.72683,6.08965 7.78382,14.26955 7.88612,23.27762 0.0565,3.86001 -0.48283,7.91229 -1.94085,11.7882 -1.30708,3.48642 -3.46939,6.81526 -6.53869,9.33005 -0.79115,0.63526 -1.62424,1.20822 -2.49115,1.7218 -2.60794,1.54501 -5.46683,2.52027 -8.30006,3.05905 -4.28937,0.83076 -8.60932,0.78392 -12.67838,0.14467 -4.41441,-0.68537 -8.58397,-2.07027 -12.31138,-4.06376 -3.85807,-2.05417 -7.17668,-4.78842 -9.6355,-8.08529 -5.67134,-7.75645 -5.99186,-17.23129 -4.85547,-23.91649 0.78072,-4.71622 2.30123,-8.60774 3.96171,-11.62031 3.4854,-6.34288 7.33285,-8.50088 7.5398,-8.24566 0.20696,0.25522 -3.06569,2.82709 -5.91846,9.06263 -1.35437,2.97097 -2.5537,6.70198 -3.08183,11.1602 -0.71606,6.29454 -0.13274,15.05504 5.0053,21.54855 2.17068,2.80581 5.15463,5.13655 8.64168,6.94512 3.38374,1.74622 7.18315,2.94784 11.21017,3.53945 3.71476,0.53825 7.60703,0.56333 11.38932,-0.19425 2.48549,-0.50783 4.94486,-1.33496 7.09879,-2.60544 0.71632,-0.42252 1.39419,-0.89132 2.0257,-1.40968 2.4669,-1.97448 4.26244,-4.76327 5.41481,-7.71643 1.29091,-3.3216 1.7881,-6.92033 1.79224,-10.4163 -0.0201,-8.20657 -2.63597,-15.73254 -6.78988,-21.34957 -4.82523,-6.54753 -11.5945,-10.15906 -17.44867,-11.53137 -6.12539,-1.42119 -11.23555,-0.40349 -14.41802,0.75246 -3.22155,1.17015 -4.77701,2.39238 -4.92115,2.21463 z"
       id="path16516"
       inkscape:path-effect="#path-effect16518;#path-effect16520"
       inkscape:original-d="m 133.07613,106.66288 c 17.8341,4.00313 35.66822,8.0062 53.50236,12.0092 0.95127,20.76006 1.90243,41.52015 2.85346,62.28022 -22.64934,-3.16512 -45.29868,-6.33034 -67.948,-9.49563 3.86421,-21.59792 7.72826,-43.19584 11.59218,-64.79379 z" />
    <path
       style="fill:#cccccc;stroke:none;stroke-width:0.264583px;stroke-linecap:butt;stroke-linejoin:miter;stroke-opacity:1"
       d="m 164.89739,173.84098 c -0.0665,0.33978 -1.80554,0.76584 -4.55363,-0.7581 -2.32449,-1.32344 -4.2436,-3.28678 -6.6621,-6.31842 -3.13633,-3.87053 -6.48503,-8.56238 -9.90344,-14.11734 -0.39571,-0.64048 -0.79427,-1.29248 -1.19118,-1.95303 -2.94074,-4.89413 -5.21827,-9.33616 -6.74869,-13.95706 0,0 0,0 0,-1e-5 -1.41624,-4.11584 -1.61688,-7.79542 -0.68378,-10.88476 1.54696,-4.74104 4.08309,-6.22162 4.44816,-5.95948 0.36506,0.26214 -1.58426,2.62174 -2.13812,6.52114 -0.45225,2.62373 0.10898,5.4373 1.54295,9.17293 0,0 0,1e-5 0,1e-5 1.70071,4.27644 3.93601,8.27267 6.85296,13.14356 0.38771,0.64743 0.78025,1.29905 1.16405,1.93646 3.38864,5.60536 6.30456,10.11039 9.11707,14.27378 2.26227,3.28945 3.38705,4.95279 5.28593,6.57937 1.78401,1.61899 3.53634,1.98116 3.46982,2.32095 z"
       id="path16561"
       inkscape:path-effect="#path-effect16563;#path-effect16565"
       inkscape:original-d="m 164.89739,173.84098 c -2.42893,-1.46954 -5.45392,2.65007 -6.15279,-1.20444 -9.06563,-13.84199 -18.1313,-27.68398 -27.19702,-41.52594 2.6852,-3.73921 5.37024,-7.47848 8.05514,-11.21782" />
    <path
       style="fill:#8f8f8f;fill-opacity:0.704453;stroke:#000080;stroke-width:2.31776;filter:url(#filter24309)"
       d="M 385.69334,894.2492 C 297.24856,876.91857 224.16748,803.31877 207.30615,714.70823 188.87204,633.37514 194.79813,546.67859 221.48798,467.86075 c 1.3302,87.32732 40.65469,169.61176 77.81666,247.53819 31.32734,63.50572 66.13561,125.92264 109.87849,181.78736 -7.92629,0.14456 -15.75068,-1.39695 -23.48979,-2.9371 z"
       id="path16937"
       transform="matrix(0.12900713,0,0,0.10101303,105.96826,81.248081)" />
    <path
       style="fill:#000000;fill-opacity:1;stroke:#000080;stroke-width:0.264583"
       d="m 158.41233,175.53141 c -13.30252,-1.24224 -25.08254,-9.10568 -28.22277,-19.24567 -3.33071,-10.14615 -1.84164,-21.28903 4.18888,-30.66746 0.77632,-1.37359 4.56005,-5.7322 2.23484,-1.84193 -2.94947,7.609 -5.57934,15.5065 -4.56638,23.53003 0.65049,7.89783 4.57904,16.20959 13.47452,20.69234 4.35627,2.50566 9.93906,3.60335 15.0452,4.17926 -0.38137,2.74632 9.53057,1.0495 3.095,0.0815 2.19324,-0.6654 7.05526,-0.95385 9.71777,-2.5938 8.42985,-4.2658 10.38752,-12.77158 10.49834,-20.04675 0.22465,-11.29421 -4.44132,-23.7013 -16.66085,-30.63355 -7.44085,-4.36846 -18.55667,-4.63029 -25.89934,0.0136 0.89189,-2.21328 6.76382,-4.72793 10.84913,-5.08671 12.0695,-1.35998 23.33708,5.19884 28.88557,13.08871 7.12891,9.72421 9.00367,21.57014 5.94879,32.43769 -1.85304,6.71051 -7.56995,13.15166 -16.36089,15.1927 -3.89411,1.0875 -8.14807,1.06956 -12.22781,0.90004 z"
       id="path17087" />
    <path
       style="fill:#000000;stroke:none;stroke-width:0.264583px;stroke-linecap:butt;stroke-linejoin:miter;stroke-opacity:1"
       d="m 16.955349,92.687355 c 0.888773,0.03519 1.651319,0.964295 2.316855,2.520152 0.658682,1.539832 1.149109,3.658304 1.922867,5.683643 0.340133,0.8278 0.641593,1.55789 0.990949,1.87432 0.220705,0.16597 0.389919,0.29016 0.415644,0.1999 0.19163,0.18218 0.490796,0.26894 0.910265,0.29993 1.064454,0.0786 2.820367,-0.164 4.755223,-0.10491 0,0 1e-6,0 1e-6,0 6.529239,-0.31316 11.808433,-0.49322 12.405943,1.75854 0.534853,2.01564 -3.587089,5.33701 -11.002555,7.1982 -1e-6,0 -2e-6,0 -2e-6,0 -1.878478,0.65658 -4.493346,1.12546 -7.653608,0.53095 -1.244728,-0.23416 -2.51781,-0.62636 -3.789899,-1.19897 -1.953613,-1.11117 -3.296765,-2.64622 -4.070238,-4.30225 -0.856679,-1.90179 -1.131056,-3.60753 -1.132325,-4.9916 -0.03598,-3.146913 0.692051,-5.611952 1.421402,-7.109239 0.7557,-1.551377 1.649007,-2.392731 2.509478,-2.358666 z"
       id="path24124"
       inkscape:path-effect="#path-effect24126;#path-effect24128"
       inkscape:original-d="m 16.955344,92.687355 c -0.2468,6.240864 -0.49386,12.481465 -0.74118,18.721815 8.1534,-2.16319 16.30621,-4.32656 24.45893,-6.49023" />
    <path
       style="fill:#000000;stroke:none;stroke-width:0.264583px;stroke-linecap:butt;stroke-linejoin:miter;stroke-opacity:1"
       d="m 16.955343,92.68735 c -0.223063,-1.913361 4.327684,-3.831537 10.879675,-5.635073 1.052863,-0.292291 2.02067,-0.514 2.607879,-0.786953 0.06588,-0.04134 -0.02203,-0.01146 -0.276213,0.07882 0.05964,-0.390911 -0.575912,0.229444 -1.969461,1.850583 0,0 -3.3e-5,3.8e-5 -3.3e-5,3.8e-5 -0.432641,3.680634 0.05213,5.675515 1.517733,5.989462 0.876424,0.440261 1.25973,0.627905 1.154636,0.522854 0.03137,0.01492 -0.179901,0.04254 -0.649481,0.0092 -0.629969,-0.01655 -1.264835,-0.02056 -1.996519,-0.03195 -0.806921,-0.01176 -1.641605,-0.02654 -2.484249,-0.04684 -1.316892,-0.03172 -2.607615,-0.07583 -3.884981,-0.142671 0,0 -2e-6,0 -2e-6,0 C 11.674142,93.962885 3.8611672,92.056606 3.8611672,89.69187 c 0,-2.364745 7.7676818,-4.396271 18.1086888,-4.678117 0,0 1e-6,0 1e-6,0 1.284023,-0.03537 2.625644,-0.04336 4.002674,-0.0099 0.889103,0.02163 1.769406,0.05997 2.641148,0.116776 0.765908,0.0494 1.553411,0.115427 2.369014,0.215716 0.415803,0.03865 1.075696,0.130311 1.952904,0.338746 0.09286,-0.05986 0.679683,0.173046 1.726423,0.721525 1.542078,0.36252 2.093148,2.450187 1.61723,6.210073 0,0 -3.4e-5,4e-5 -3.4e-5,4e-5 -1.461477,1.745502 -2.242127,2.424013 -2.310768,2.09167 -0.496442,0.200512 -0.838909,0.307908 -1.026841,0.338922 -1.570775,0.339038 -2.876767,0.404361 -3.858121,0.41436 -7.100554,0.23531 -11.925957,-1.030085 -12.128143,-2.764362 z"
       id="path24130"
       inkscape:path-effect="#path-effect24132;#path-effect24134"
       inkscape:original-d="m 16.955344,92.687355 c 8.565,-0.99825 17.12974,-1.99674 25.69423,-2.99549 -12.92947,2.5e-4 -25.85868,2.5e-4 -38.7883999,0" />
    <path
       style="fill:#000000;stroke:none;stroke-width:0.264583px;stroke-linecap:butt;stroke-linejoin:miter;stroke-opacity:1"
       d="m 14.484739,87.694863 c -1.370454,-0.521683 -2.429461,-3.660958 -0.751857,-8.257838 0.799393,-2.233574 2.531084,-4.804126 5.683978,-6.673738 0.666913,-0.345671 1.345556,-0.642296 2.030214,-0.891064 2.708422,-0.984097 5.187742,-1.109114 7.141359,-0.910256 1e-6,10e-7 1e-6,10e-7 1e-6,10e-7 5.736799,0.418473 9.194014,2.693334 9.119956,4.501312 -0.08802,2.148881 -3.901159,3.275633 -8.606088,4.324537 0,0 -1e-6,10e-7 -1e-6,10e-7 -1.620854,0.409743 -3.206908,0.671534 -4.403711,1.096441 -0.303087,0.107607 -0.573842,0.224673 -0.816153,0.357868 -0.943679,0.300396 -2.083579,1.338472 -3.148786,2.302406 -2.555511,2.472484 -4.407258,4.851382 -6.248912,4.15033 z"
       id="path24136"
       inkscape:path-effect="#path-effect24138;#path-effect24140"
       inkscape:original-d="m 14.484744,87.694865 c 1.64732,-4.32656 3.29439,-8.65338 4.9412,-12.98046 6.09452,0.24989 12.18854,0.49951 18.28244,0.74888" />
    <path
       style="fill:#000000;stroke:none;stroke-width:0.264583px;stroke-linecap:butt;stroke-linejoin:miter;stroke-opacity:1"
       d="m 72.543828,78.458778 c 0.693821,0.641665 -0.01336,2.613618 -1.715553,5.549639 -1.326642,2.28825 -4.727373,7.291208 -6.236947,11.094546 -0.519198,1.642881 -1.092123,3.060024 -0.703934,3.5898 -0.221375,-0.01638 0.432195,0.27174 1.041455,0.662358 0.793001,0.38221 1.73098,0.626113 2.807869,0.798569 1.330012,0.213 2.879475,0.31571 4.436143,0.43661 3.229947,0.12972 6.002565,0.0697 8.548206,-0.4256 0,0 10e-7,0 10e-7,0 1.884119,-0.516227 3.163823,-0.67908 3.789581,-1.29694 -0.15077,-0.14096 0.447928,0.154231 0.637809,1.16302 0.610248,-0.08444 -0.408288,-0.438966 -1.546112,-1.195866 -3.269306,-1.66777 -5.537869,-2.462303 -5.376149,-3.651315 0.111124,-0.817011 2.451181,-1.879572 6.699299,-1.60226 1.251453,-0.113464 3.485092,0.173604 5.896339,2.66295 1.427169,2.862643 1.270276,5.901891 -0.52557,7.653231 -2.033535,2.4369 -4.692102,4.0019 -7.31758,4.69397 10e-7,0 -2e-6,0 -2e-6,0 -3.493806,1.12158 -7.220154,1.59026 -11.061822,1.52983 -1.791207,0.0317 -3.787302,-0.0743 -5.889886,-0.48025 -1.679811,-0.32432 -3.376453,-0.83033 -5.056053,-1.57108 -3.117291,-1.30102 -5.445959,-4.21743 -6.226604,-8.03263 -0.255061,-3.922133 0.938433,-6.894218 2.281307,-8.849979 3.242948,-5.262009 7.476944,-8.792914 10.083653,-10.615298 2.811441,-1.965515 4.780694,-2.718008 5.43455,-2.113305 z"
       id="path24142"
       inkscape:path-effect="#path-effect24144;#path-effect24146"
       inkscape:original-d="m 72.543824,78.458775 c -4.69388,5.07594 -9.38802,10.15164 -14.08241,15.22707 2.5e-4,3.99433 2.5e-4,7.988235 0,11.981975 8.97694,0.0835 17.95327,0.16667 26.92953,0.24962 1.89442,-2.99529 3.7885,-5.990721 5.68238,-8.986475 -4.28221,-0.58221 -8.56449,-1.16466 -12.84712,-1.74737" />
    <path
       style="fill:#000000;stroke:none;stroke-width:0.264583px;stroke-linecap:butt;stroke-linejoin:miter;stroke-opacity:1"
       d="m 83.243725,74.65837 c 0.216486,0.821339 -0.102127,1.696201 -0.809085,2.601692 -0.781878,1.00145 -1.661728,1.652819 -2.645928,2.614411 -0.406032,0.528514 -0.324903,0.422064 0.69251,-0.320002 0.598942,-0.570081 0.828569,-1.613079 0.691565,-3.23145 -0.572418,-1.379283 -0.958297,-2.118671 -1.228228,-2.104009 -0.275995,-0.204212 -0.07849,-0.36171 0.761803,-0.03361 0.446289,0.109844 0.934657,0.230903 1.434828,0.36252 0.572127,0.150553 1.150354,0.312409 1.738625,0.496725 0,0 0,10e-7 0,10e-7 5.111563,1.592446 8.974433,4.193704 8.505135,6.60318 -0.456455,2.343541 -4.953312,3.596041 -10.672293,2.650922 0,0 -10e-7,0 -10e-7,0 -0.645668,-0.104898 -1.329076,-0.246212 -2.039851,-0.435602 -0.631528,-0.168276 -1.261622,-0.368385 -1.885723,-0.603341 -0.679607,-0.161203 -1.897531,-0.73531 -3.349521,-1.838245 -0.56788,-0.212416 -1.233612,-1.229364 -1.893734,-2.962784 -0.20876,-1.908223 0.126409,-3.257639 0.897541,-4.062911 1.658989,-1.604911 2.726753,-2.050107 3.220898,-1.916585 3.874037,-0.696075 6.210008,0.769813 6.581459,2.179085 z"
       id="path24148"
       inkscape:path-effect="#path-effect24150;#path-effect24152"
       inkscape:original-d="m 83.243724,74.658365 c -3.788,0.99875 -7.57625,1.99724 -11.36476,2.99549 6.83572,1.33161 13.6709,2.66291 20.50598,3.99398" />
    <use
       x="0"
       y="0"
       xlink:href="#path24142"
       id="use24234"
       transform="translate(47.435504,0.99849569)"
       width="100%"
       height="100%"
       style="stroke-width:1.04146" />
    <use
       x="0"
       y="0"
       xlink:href="#path24148"
       id="use24236"
       transform="translate(48.100364,1.8034156)"
       width="100%"
       height="100%"
       style="stroke-width:1.04146" />
    <path
       style="fill:#8f8f8f;fill-opacity:0.704453;stroke:#000080;stroke-width:0.264582"
       d="m 155.02361,170.80579 c -9.79333,-1.853 -18.1508,-7.90238 -20.72233,-15.4521 -2.63557,-6.42496 -2.54477,-13.39089 -1.19904,-20.01988 0.6531,-4.09957 1.7531,-0.34872 2.15483,1.57962 1.68441,5.45047 4.77892,10.43951 7.75318,15.57283 3.17913,5.30178 6.8848,10.37141 10.91921,15.30887 0.0814,0.54834 4.33352,3.77488 1.09415,3.01066 z"
       id="path31404" />
    <path
       style="fill:#8f8f8f;fill-opacity:0.704453;stroke:#000080;stroke-width:0.264582"
       d="m 154.39308,170.56352 c -10.73048,-2.14201 -19.03356,-9.50082 -20.89423,-17.90892 -1.62731,-6.2131 -1.57422,-12.76408 0.24063,-18.94686 1.53287,1.88153 1.95756,6.27949 3.68577,8.9236 4.7696,9.5967 10.79188,18.86134 18.2798,27.37438 1.24218,1.20194 -0.57857,0.77618 -1.31197,0.5578 z"
       id="path31443" />
    <path
       style="fill:#8f8f8f;fill-opacity:0.704453;stroke:#000080;stroke-width:0.264582"
       d="m 155.21277,170.64515 c -11.10985,-2.05011 -19.82255,-9.56697 -21.64261,-18.26044 -1.54288,-5.99631 -1.39395,-12.28543 0.15778,-18.27261 1.29975,1.17155 1.99902,6.18874 3.60127,8.6327 4.81854,9.71389 11.03184,19.00196 18.48815,27.66196 0.5715,0.26921 -0.48013,0.59379 -0.60459,0.23839 z"
       id="path31482" />
    <path
       style="fill:#8f8f8f;fill-opacity:0.704453;stroke:#000080;stroke-width:0.264582"
       d="m 154.20392,170.3013 c -10.71795,-2.28135 -18.82598,-9.76172 -20.57198,-18.19266 -1.40564,-5.99421 -1.28773,-12.26721 0.31125,-18.23127 2.81222,10.08102 8.8186,19.42549 15.21615,28.3958 2.0485,2.84338 4.59303,5.6358 6.59682,8.38095 l -0.49806,-0.10547 z"
       id="path31521" />
    <path
       style="fill:#8f8f8f;fill-opacity:0.704453;stroke:#000080;stroke-width:0.264582"
       d="m 153.38423,169.97857 c -10.15608,-2.4412 -17.78467,-9.61608 -19.56188,-17.68321 -1.36419,-5.42797 -1.13904,-11.07932 -0.25511,-16.54261 0.57929,-3.34044 1.3478,3.10333 2.18291,3.89791 4.63963,10.91633 11.71567,21.12449 19.71483,30.7693 -0.7387,0.0432 -1.37697,-0.35667 -2.08075,-0.44139 z"
       id="path31560" />
    <path
       style="fill:#8f8f8f;fill-opacity:0.704453;stroke:#000080;stroke-width:0.264582"
       d="m 154.58224,170.18933 c -9.84651,-2.17298 -17.81671,-8.59843 -20.13441,-16.33486 -2.03572,-6.18083 -1.7354,-12.73051 -0.51322,-18.98741 4.07706,12.7362 12.31885,24.39953 21.25108,35.44544 z"
       id="path31599" />
    <path
       style="fill:#8f8f8f;fill-opacity:0.704453;stroke:#000080;stroke-width:0.264582"
       d="m 154.39308,170.04149 c -8.95628,-2.15338 -16.54539,-7.71993 -19.22312,-14.74411 -2.65313,-6.4438 -2.35337,-13.39431 -1.23805,-20.02685 4.09841,12.49929 12.19839,23.93541 20.88825,34.83448 z"
       id="path31638" />
    <path
       style="fill:#808080;fill-opacity:0.704453;stroke:#000080;stroke-width:0.264582"
       d="m 152.81675,169.47061 c -6.21605,-1.72387 -11.43493,-5.27305 -14.90816,-9.57242 -5.1703,-7.20971 -5.26651,-15.82392 -3.94994,-23.78908 4.44565,12.02781 11.99955,23.23046 20.58194,33.78429 -0.29134,0.22087 -1.41496,-0.52655 -1.72384,-0.42279 z"
       id="path31753" />
    <path
       style="fill:#808080;fill-opacity:0.704453;stroke:#000080;stroke-width:0.999997"
       d=""
       id="path31829"
       transform="scale(0.26458333)" />
    <path
       style="fill:#808080;fill-opacity:0.704453;stroke:#000080;stroke-width:0.999997"
       d=""
       id="path31868"
       transform="scale(0.26458333)" />
    <path
       style="fill:#808080;fill-opacity:0.704453;stroke:#000080;stroke-width:0.264582"
       d="m 152.81675,169.36685 c -6.56122,-1.95447 -12.29453,-5.76969 -15.51003,-10.62692 -4.50841,-6.88585 -4.27318,-14.8534 -3.33455,-22.33408 4.3655,11.86349 11.8723,22.87005 20.23175,33.31721 -0.50742,0.07 -0.90706,-0.33401 -1.38717,-0.35621 z"
       id="path31907" />
    <path
       style="mix-blend-mode:normal;fill:#80802c;fill-opacity:0.704453;stroke:#000080;stroke-width:2.31774;filter:url(#filter33169)"
       d="m 360.42665,870.00474 c -45.4706,-16.98947 -82.3104,-51.14989 -109.67576,-90.42194 -40.36132,-68.17343 -39.8215,-149.88277 -33.37242,-226.25521 13.22327,35.90792 28.38881,84.20919 46.85772,122.87768 29.40079,69.29061 68.94983,133.4454 106.96573,198.16494 l -3.46394,-1.28903 z"
       id="path31946"
       transform="matrix(0.12900713,0,0,0.10101303,106.8866,82.096755)" />
    <path
       style="fill:#000000;stroke:none;stroke-opacity:1;stroke-linejoin:miter;stroke-linecap:butt;stroke-width:1px"
       d="M 1059.6251,338.21981 V 477.02678"
       id="path1051" />
    <rect
       style="fill:none;fill-opacity:0.704453;stroke:#000080;stroke-width:0.264583"
       id="rect1585"
       width="227.62128"
       height="138.79689"
       x="-6.162827"
       y="44.37001"
       ry="7.2417488" />
  </g>
</svg>
