<?xml version="1.0" encoding="UTF-8" standalone="no"?>
<!-- Created with Inkscape (http://www.inkscape.org/) -->

<svg
   width="210mm"
   height="297mm"
   viewBox="0 0 210 297"
   version="1.1"
   id="svg5"
   inkscape:version="1.1 (c68e22c387, 2021-05-23)"
   sodipodi:docname="drawing 1 id card egg.svg"
   xmlns:inkscape="http://www.inkscape.org/namespaces/inkscape"
   xmlns:sodipodi="http://sodipodi.sourceforge.net/DTD/sodipodi-0.dtd"
   xmlns:xlink="http://www.w3.org/1999/xlink"
   xmlns="http://www.w3.org/2000/svg"
   xmlns:svg="http://www.w3.org/2000/svg">
  <sodipodi:namedview
     id="namedview7"
     pagecolor="#ffffff"
     bordercolor="#666666"
     borderopacity="1.0"
     inkscape:pageshadow="2"
     inkscape:pageopacity="0.0"
     inkscape:pagecheckerboard="0"
     inkscape:document-units="mm"
     showgrid="false"
     inkscape:zoom="0.51150168"
     inkscape:cx="1042.0298"
     inkscape:cy="611.9237"
     inkscape:window-width="1482"
     inkscape:window-height="1030"
     inkscape:window-x="248"
     inkscape:window-y="0"
     inkscape:window-maximized="0"
     inkscape:current-layer="layer1"
     inkscape:snap-object-midpoints="false"
     inkscape:snap-center="false"
     inkscape:snap-others="false"
     inkscape:snap-grids="true" />
  <defs
     id="defs2">
    <inkscape:path-effect
       effect="bspline"
       id="path-effect1128"
       is_visible="true"
       lpeversion="1"
       weight="33.333333"
       steps="2"
       helper_size="0"
       apply_no_weight="true"
       apply_with_weight="true"
       only_selected="false" />
    <inkscape:path-effect
       effect="powerstroke"
       id="path-effect1056"
       is_visible="true"
       lpeversion="1"
       offset_points="0.5,0.5"
       not_jump="true"
       sort_points="true"
       interpolator_type="CentripetalCatmullRom"
       interpolator_beta="0.75"
       start_linecap_type="round"
       linejoin_type="spiro"
       miter_limit="4"
       scale_width="1"
       end_linecap_type="round" />
    <inkscape:path-effect
       effect="simplify"
       id="path-effect1054"
       is_visible="true"
       lpeversion="1"
       steps="1"
       threshold="0.0032025118"
       smooth_angles="0"
       helper_size="0"
       simplify_individual_paths="false"
       simplify_just_coalesce="false"
       step="1" />
    <inkscape:path-effect
       effect="skeletal"
       id="path-effect33635"
       is_visible="true"
       lpeversion="1"
       pattern="m 97.246338,232.41169 c -4.622099,-2.00016 -10.972046,-5.37285 -13.117308,-6.96708 -1.137989,-0.84569 -4.52019,-3.98955 -7.515998,-6.98634 -6.087816,-6.08982 -7.641664,-8.13999 -10.204791,-13.46437 -4.276796,-8.88418 -6.680205,-17.52345 -7.483441,-26.89992 -0.562961,-6.57164 -0.242196,-26.54067 0.473374,-29.46979 0.16986,-0.6953 0.227272,-0.60546 0.661136,1.03454 1.829533,6.91564 6.768513,20.30387 11.014652,29.85773 7.789156,17.52569 12.652954,26.68203 25.107095,47.26534 2.259309,3.73403 4.021623,6.78724 3.916243,6.78492 -0.105383,-0.002 -1.388313,-0.52209 -2.850962,-1.15503 z"
       copytype="single_stretched"
       prop_scale="1"
       scale_y_rel="false"
       spacing="0"
       normal_offset="0"
       tang_offset="0"
       prop_units="false"
       vertical_pattern="false"
       hide_knot="false"
       fuse_tolerance="0" />
    <inkscape:path-effect
       effect="bspline"
       id="path-effect33581"
       is_visible="true"
       lpeversion="1"
       weight="33.333333"
       steps="2"
       helper_size="0"
       apply_no_weight="true"
       apply_with_weight="true"
       only_selected="false" />
    <inkscape:path-effect
       effect="skeletal"
       id="path-effect33544"
       is_visible="true"
       lpeversion="1"
       pattern="m 97.246338,232.41169 c -4.622099,-2.00016 -10.972046,-5.37285 -13.117308,-6.96708 -1.137989,-0.84569 -4.52019,-3.98955 -7.515998,-6.98634 -6.087816,-6.08982 -7.641664,-8.13999 -10.204791,-13.46437 -4.276796,-8.88418 -6.680205,-17.52345 -7.483441,-26.89992 -0.562961,-6.57164 -0.242196,-26.54067 0.473374,-29.46979 0.16986,-0.6953 0.227272,-0.60546 0.661136,1.03454 1.829533,6.91564 6.768513,20.30387 11.014652,29.85773 7.789156,17.52569 12.652954,26.68203 25.107095,47.26534 2.259309,3.73403 4.021623,6.78724 3.916243,6.78492 -0.105383,-0.002 -1.388313,-0.52209 -2.850962,-1.15503 z"
       copytype="single_stretched"
       prop_scale="1"
       scale_y_rel="false"
       spacing="0"
       normal_offset="0"
       tang_offset="0"
       prop_units="false"
       vertical_pattern="false"
       hide_knot="false"
       fuse_tolerance="0" />
    <inkscape:path-effect
       effect="bspline"
       id="path-effect33490"
       is_visible="true"
       lpeversion="1"
       weight="33.333333"
       steps="2"
       helper_size="0"
       apply_no_weight="true"
       apply_with_weight="true"
       only_selected="false" />
    <inkscape:path-effect
       effect="skeletal"
       id="path-effect33453"
       is_visible="true"
       lpeversion="1"
       pattern="m 97.246338,232.41169 c -4.622099,-2.00016 -10.972046,-5.37285 -13.117308,-6.96708 -1.137989,-0.84569 -4.52019,-3.98955 -7.515998,-6.98634 -6.087816,-6.08982 -7.641664,-8.13999 -10.204791,-13.46437 -4.276796,-8.88418 -6.680205,-17.52345 -7.483441,-26.89992 -0.562961,-6.57164 -0.242196,-26.54067 0.473374,-29.46979 0.16986,-0.6953 0.227272,-0.60546 0.661136,1.03454 1.829533,6.91564 6.768513,20.30387 11.014652,29.85773 7.789156,17.52569 12.652954,26.68203 25.107095,47.26534 2.259309,3.73403 4.021623,6.78724 3.916243,6.78492 -0.105383,-0.002 -1.388313,-0.52209 -2.850962,-1.15503 z"
       copytype="single_stretched"
       prop_scale="1"
       scale_y_rel="false"
       spacing="0"
       normal_offset="0"
       tang_offset="0"
       prop_units="false"
       vertical_pattern="false"
       hide_knot="false"
       fuse_tolerance="0" />
    <inkscape:path-effect
       effect="bspline"
       id="path-effect33399"
       is_visible="true"
       lpeversion="1"
       weight="33.333333"
       steps="2"
       helper_size="0"
       apply_no_weight="true"
       apply_with_weight="true"
       only_selected="false" />
    <inkscape:path-effect
       effect="skeletal"
       id="path-effect24152"
       is_visible="true"
       lpeversion="1"
       pattern="m 228.1678,68.349597 c 0,-2.65966 2.13639,-4.81823 4.76874,-4.81823 2.63234,0 4.76874,2.15857 4.76874,4.81823 0,2.65967 -2.1364,4.81824 -4.76874,4.81824 -2.63235,0 -4.76874,-2.15857 -4.76874,-4.81824 z"
       copytype="single_stretched"
       prop_scale="1"
       scale_y_rel="false"
       spacing="0"
       normal_offset="0"
       tang_offset="0"
       prop_units="false"
       vertical_pattern="false"
       hide_knot="false"
       fuse_tolerance="0" />
    <inkscape:path-effect
       effect="bspline"
       id="path-effect24150"
       is_visible="true"
       lpeversion="1"
       weight="33.333333"
       steps="2"
       helper_size="0"
       apply_no_weight="true"
       apply_with_weight="true"
       only_selected="false" />
    <inkscape:path-effect
       effect="skeletal"
       id="path-effect24146"
       is_visible="true"
       lpeversion="1"
       pattern="m 228.83266,69.154517 c 0,-2.65966 2.13639,-4.81823 4.76874,-4.81823 2.63234,0 4.76874,2.15857 4.76874,4.81823 0,2.65967 -2.1364,4.81824 -4.76874,4.81824 -2.63235,0 -4.76874,-2.15857 -4.76874,-4.81824 z"
       copytype="single_stretched"
       prop_scale="1"
       scale_y_rel="false"
       spacing="0"
       normal_offset="0"
       tang_offset="0"
       prop_units="false"
       vertical_pattern="false"
       hide_knot="false"
       fuse_tolerance="0" />
    <inkscape:path-effect
       effect="bspline"
       id="path-effect24144"
       is_visible="true"
       lpeversion="1"
       weight="33.333333"
       steps="2"
       helper_size="0"
       apply_no_weight="true"
       apply_with_weight="true"
       only_selected="false" />
    <inkscape:path-effect
       effect="skeletal"
       id="path-effect24140"
       is_visible="true"
       lpeversion="1"
       pattern="m 228.83266,69.154517 c 0,-2.65966 2.13639,-4.81823 4.76874,-4.81823 2.63234,0 4.76874,2.15857 4.76874,4.81823 0,2.65967 -2.1364,4.81824 -4.76874,4.81824 -2.63235,0 -4.76874,-2.15857 -4.76874,-4.81824 z"
       copytype="single_stretched"
       prop_scale="1"
       scale_y_rel="false"
       spacing="0"
       normal_offset="0"
       tang_offset="0"
       prop_units="false"
       vertical_pattern="false"
       hide_knot="false"
       fuse_tolerance="0" />
    <inkscape:path-effect
       effect="bspline"
       id="path-effect24138"
       is_visible="true"
       lpeversion="1"
       weight="33.333333"
       steps="2"
       helper_size="0"
       apply_no_weight="true"
       apply_with_weight="true"
       only_selected="false" />
    <inkscape:path-effect
       effect="skeletal"
       id="path-effect24134"
       is_visible="true"
       lpeversion="1"
       pattern="m 228.83266,69.154517 c 0,-2.65966 2.13639,-4.81823 4.76874,-4.81823 2.63234,0 4.76874,2.15857 4.76874,4.81823 0,2.65967 -2.1364,4.81824 -4.76874,4.81824 -2.63235,0 -4.76874,-2.15857 -4.76874,-4.81824 z"
       copytype="single_stretched"
       prop_scale="1"
       scale_y_rel="false"
       spacing="0"
       normal_offset="0"
       tang_offset="0"
       prop_units="false"
       vertical_pattern="false"
       hide_knot="false"
       fuse_tolerance="0" />
    <inkscape:path-effect
       effect="bspline"
       id="path-effect24132"
       is_visible="true"
       lpeversion="1"
       weight="33.333333"
       steps="2"
       helper_size="0"
       apply_no_weight="true"
       apply_with_weight="true"
       only_selected="false" />
    <inkscape:path-effect
       effect="skeletal"
       id="path-effect24128"
       is_visible="true"
       lpeversion="1"
       pattern="m 228.83266,69.154517 c 0,-2.65966 2.13639,-4.81823 4.76874,-4.81823 2.63234,0 4.76874,2.15857 4.76874,4.81823 0,2.65967 -2.1364,4.81824 -4.76874,4.81824 -2.63235,0 -4.76874,-2.15857 -4.76874,-4.81824 z"
       copytype="single_stretched"
       prop_scale="1"
       scale_y_rel="false"
       spacing="0"
       normal_offset="0"
       tang_offset="0"
       prop_units="false"
       vertical_pattern="false"
       hide_knot="false"
       fuse_tolerance="0" />
    <inkscape:path-effect
       effect="bspline"
       id="path-effect24126"
       is_visible="true"
       lpeversion="1"
       weight="33.333333"
       steps="2"
       helper_size="0"
       apply_no_weight="true"
       apply_with_weight="true"
       only_selected="false" />
    <inkscape:path-effect
       effect="powerstroke"
       id="path-effect16762"
       is_visible="true"
       lpeversion="1"
       offset_points="1.2342767,0.45462987"
       not_jump="true"
       sort_points="true"
       interpolator_type="CentripetalCatmullRom"
       interpolator_beta="0.75"
       start_linecap_type="round"
       linejoin_type="spiro"
       miter_limit="4"
       scale_width="1"
       end_linecap_type="round" />
    <inkscape:path-effect
       effect="simplify"
       id="path-effect16760"
       is_visible="true"
       lpeversion="1"
       steps="1"
       threshold="0.0032025118"
       smooth_angles="0"
       helper_size="0"
       simplify_individual_paths="false"
       simplify_just_coalesce="false"
       step="1" />
    <inkscape:path-effect
       effect="powerstroke"
       id="path-effect16722"
       is_visible="true"
       lpeversion="1"
       offset_points="5.9779935,0.45462987"
       not_jump="true"
       sort_points="true"
       interpolator_type="CentripetalCatmullRom"
       interpolator_beta="0.75"
       start_linecap_type="round"
       linejoin_type="spiro"
       miter_limit="4"
       scale_width="1"
       end_linecap_type="round" />
    <inkscape:path-effect
       effect="simplify"
       id="path-effect16720"
       is_visible="true"
       lpeversion="1"
       steps="1"
       threshold="0.0032025118"
       smooth_angles="0"
       helper_size="0"
       simplify_individual_paths="false"
       simplify_just_coalesce="false"
       step="1" />
    <inkscape:path-effect
       effect="powerstroke"
       id="path-effect16715"
       is_visible="true"
       lpeversion="1"
       offset_points="0.53248051,0.32147186"
       not_jump="true"
       sort_points="true"
       interpolator_type="CentripetalCatmullRom"
       interpolator_beta="0.75"
       start_linecap_type="round"
       linejoin_type="spiro"
       miter_limit="4"
       scale_width="1"
       end_linecap_type="round" />
    <inkscape:path-effect
       effect="simplify"
       id="path-effect16713"
       is_visible="true"
       lpeversion="1"
       steps="1"
       threshold="0.0032025118"
       smooth_angles="0"
       helper_size="0"
       simplify_individual_paths="false"
       simplify_just_coalesce="false"
       step="1" />
    <inkscape:path-effect
       effect="powerstroke"
       id="path-effect16675"
       is_visible="true"
       lpeversion="1"
       offset_points="0.42212889,0.32147186"
       not_jump="true"
       sort_points="true"
       interpolator_type="CentripetalCatmullRom"
       interpolator_beta="0.75"
       start_linecap_type="round"
       linejoin_type="spiro"
       miter_limit="4"
       scale_width="1"
       end_linecap_type="round" />
    <inkscape:path-effect
       effect="simplify"
       id="path-effect16673"
       is_visible="true"
       lpeversion="1"
       steps="1"
       threshold="0.0032025118"
       smooth_angles="0"
       helper_size="0"
       simplify_individual_paths="false"
       simplify_just_coalesce="false"
       step="1" />
    <inkscape:path-effect
       effect="skeletal"
       id="path-effect16604"
       is_visible="true"
       lpeversion="1"
       pattern="M 0,4.9921382 C 0,2.2364779 2.2364779,0 4.9921382,0 c 2.7556604,0 4.9921383,2.2364779 4.9921383,4.9921382 0,2.7556604 -2.2364779,4.9921383 -4.9921383,4.9921383 C 2.2364779,9.9842765 0,7.7477986 0,4.9921382 Z"
       copytype="single_stretched"
       prop_scale="1"
       scale_y_rel="false"
       spacing="0"
       normal_offset="0"
       tang_offset="0"
       prop_units="false"
       vertical_pattern="false"
       hide_knot="false"
       fuse_tolerance="0" />
    <inkscape:path-effect
       effect="bspline"
       id="path-effect16602"
       is_visible="true"
       lpeversion="1"
       weight="33.333333"
       steps="2"
       helper_size="0"
       apply_no_weight="true"
       apply_with_weight="true"
       only_selected="false" />
    <inkscape:path-effect
       effect="skeletal"
       id="path-effect16565"
       is_visible="true"
       lpeversion="1"
       pattern="m 335.42245,82.940541 c 0,-1.052058 1.09048,-1.905913 2.4341,-1.905913 1.34362,0 2.4341,0.853855 2.4341,1.905913 0,1.052057 -1.09048,1.905903 -2.4341,1.905903 -1.34362,0 -2.4341,-0.853846 -2.4341,-1.905903 z"
       copytype="single_stretched"
       prop_scale="1"
       scale_y_rel="false"
       spacing="0"
       normal_offset="0"
       tang_offset="0"
       prop_units="false"
       vertical_pattern="false"
       hide_knot="false"
       fuse_tolerance="0" />
    <inkscape:path-effect
       effect="bspline"
       id="path-effect16563"
       is_visible="true"
       lpeversion="1"
       weight="33.333333"
       steps="2"
       helper_size="0"
       apply_no_weight="true"
       apply_with_weight="true"
       only_selected="false" />
    <inkscape:path-effect
       effect="skeletal"
       id="path-effect16526"
       is_visible="true"
       lpeversion="1"
       pattern="M 0,4.9921382 C 0,2.2364779 2.2364779,0 4.9921382,0 c 2.7556604,0 4.9921383,2.2364779 4.9921383,4.9921382 0,2.7556604 -2.2364779,4.9921383 -4.9921383,4.9921383 C 2.2364779,9.9842765 0,7.7477986 0,4.9921382 Z"
       copytype="single_stretched"
       prop_scale="1"
       scale_y_rel="false"
       spacing="0"
       normal_offset="0"
       tang_offset="0"
       prop_units="false"
       vertical_pattern="false"
       hide_knot="false"
       fuse_tolerance="0" />
    <inkscape:path-effect
       effect="bspline"
       id="path-effect16524"
       is_visible="true"
       lpeversion="1"
       weight="33.333333"
       steps="2"
       helper_size="0"
       apply_no_weight="true"
       apply_with_weight="true"
       only_selected="false" />
    <inkscape:path-effect
       effect="skeletal"
       id="path-effect16520"
       is_visible="true"
       lpeversion="1"
       pattern="m 335.88096,82.511207 c 0,-1.052067 1.09048,-1.905912 2.4341,-1.905912 1.34362,0 2.4341,0.853845 2.4341,1.905912 0,1.052058 -1.09048,1.905903 -2.4341,1.905903 -1.34362,0 -2.4341,-0.853845 -2.4341,-1.905903 z"
       copytype="single_stretched"
       prop_scale="1"
       scale_y_rel="false"
       spacing="0"
       normal_offset="0"
       tang_offset="0"
       prop_units="false"
       vertical_pattern="false"
       hide_knot="false"
       fuse_tolerance="0" />
    <inkscape:path-effect
       effect="bspline"
       id="path-effect16518"
       is_visible="true"
       lpeversion="1"
       weight="33.333333"
       steps="2"
       helper_size="0"
       apply_no_weight="true"
       apply_with_weight="true"
       only_selected="false" />
    <inkscape:path-effect
       effect="bspline"
       id="path-effect16074"
       is_visible="true"
       lpeversion="1"
       weight="33.333333"
       steps="2"
       helper_size="0"
       apply_no_weight="true"
       apply_with_weight="true"
       only_selected="false" />
    <inkscape:path-effect
       effect="powerstroke"
       id="path-effect15924"
       is_visible="true"
       lpeversion="1"
       offset_points="5,4.99214"
       not_jump="false"
       sort_points="true"
       interpolator_type="CubicBezierJohan"
       interpolator_beta="0.2"
       start_linecap_type="zerowidth"
       linejoin_type="extrp_arc"
       miter_limit="4"
       scale_width="1"
       end_linecap_type="zerowidth" />
    <inkscape:path-effect
       effect="bspline"
       id="path-effect15922"
       is_visible="true"
       lpeversion="1"
       weight="33.333333"
       steps="2"
       helper_size="0"
       apply_no_weight="true"
       apply_with_weight="true"
       only_selected="false" />
    <inkscape:path-effect
       effect="powerstroke"
       id="path-effect15725"
       is_visible="true"
       lpeversion="1"
       offset_points="3,4.99214"
       not_jump="false"
       sort_points="true"
       interpolator_type="CubicBezierJohan"
       interpolator_beta="0.2"
       start_linecap_type="zerowidth"
       linejoin_type="extrp_arc"
       miter_limit="4"
       scale_width="1"
       end_linecap_type="zerowidth" />
    <inkscape:path-effect
       effect="bspline"
       id="path-effect15723"
       is_visible="true"
       lpeversion="1"
       weight="33.333333"
       steps="2"
       helper_size="0"
       apply_no_weight="true"
       apply_with_weight="true"
       only_selected="false" />
    <inkscape:path-effect
       effect="powerstroke"
       id="path-effect15719"
       is_visible="true"
       lpeversion="1"
       offset_points="4,4.99214"
       not_jump="false"
       sort_points="true"
       interpolator_type="CubicBezierJohan"
       interpolator_beta="0.2"
       start_linecap_type="zerowidth"
       linejoin_type="extrp_arc"
       miter_limit="4"
       scale_width="1"
       end_linecap_type="zerowidth" />
    <inkscape:path-effect
       effect="bspline"
       id="path-effect15717"
       is_visible="true"
       lpeversion="1"
       weight="33.333333"
       steps="2"
       helper_size="0"
       apply_no_weight="true"
       apply_with_weight="true"
       only_selected="false" />
    <inkscape:path-effect
       effect="powerstroke"
       id="path-effect8999"
       is_visible="true"
       lpeversion="1"
       offset_points="8,4.99214"
       not_jump="false"
       sort_points="true"
       interpolator_type="CubicBezierJohan"
       interpolator_beta="0.2"
       start_linecap_type="zerowidth"
       linejoin_type="extrp_arc"
       miter_limit="4"
       scale_width="1"
       end_linecap_type="zerowidth" />
    <inkscape:path-effect
       effect="bspline"
       id="path-effect8997"
       is_visible="true"
       lpeversion="1"
       weight="33.333333"
       steps="2"
       helper_size="0"
       apply_no_weight="true"
       apply_with_weight="true"
       only_selected="false" />
    <inkscape:path-effect
       effect="powerstroke"
       id="path-effect8960"
       is_visible="true"
       lpeversion="1"
       offset_points="7,4.99214"
       not_jump="false"
       sort_points="true"
       interpolator_type="CubicBezierJohan"
       interpolator_beta="0.2"
       start_linecap_type="zerowidth"
       linejoin_type="extrp_arc"
       miter_limit="4"
       scale_width="1"
       end_linecap_type="zerowidth" />
    <inkscape:path-effect
       effect="bspline"
       id="path-effect8958"
       is_visible="true"
       lpeversion="1"
       weight="33.333333"
       steps="2"
       helper_size="0"
       apply_no_weight="true"
       apply_with_weight="true"
       only_selected="false" />
    <inkscape:path-effect
       effect="skeletal"
       id="path-effect5126"
       is_visible="true"
       lpeversion="1"
       pattern="M 0,4.9921382 C 0,2.2364779 2.2364779,0 4.9921382,0 c 2.7556604,0 4.9921383,2.2364779 4.9921383,4.9921382 0,2.7556604 -2.2364779,4.9921383 -4.9921383,4.9921383 C 2.2364779,9.9842765 0,7.7477986 0,4.9921382 Z"
       copytype="single_stretched"
       prop_scale="1"
       scale_y_rel="false"
       spacing="0"
       normal_offset="0"
       tang_offset="0"
       prop_units="false"
       vertical_pattern="false"
       hide_knot="false"
       fuse_tolerance="0" />
    <inkscape:path-effect
       effect="bspline"
       id="path-effect5124"
       is_visible="true"
       lpeversion="1"
       weight="33.333333"
       steps="2"
       helper_size="0"
       apply_no_weight="true"
       apply_with_weight="true"
       only_selected="false" />
    <inkscape:path-effect
       effect="skeletal"
       id="path-effect4894"
       is_visible="true"
       lpeversion="1"
       pattern="M 0,4.9921382 C 0,2.2364779 2.2364779,0 4.9921382,0 c 2.7556604,0 4.9921383,2.2364779 4.9921383,4.9921382 0,2.7556604 -2.2364779,4.9921383 -4.9921383,4.9921383 C 2.2364779,9.9842765 0,7.7477986 0,4.9921382 Z"
       copytype="single_stretched"
       prop_scale="1"
       scale_y_rel="false"
       spacing="0"
       normal_offset="0"
       tang_offset="0"
       prop_units="false"
       vertical_pattern="false"
       hide_knot="false"
       fuse_tolerance="0" />
    <inkscape:path-effect
       effect="bspline"
       id="path-effect4892"
       is_visible="true"
       lpeversion="1"
       weight="33.333333"
       steps="2"
       helper_size="0"
       apply_no_weight="true"
       apply_with_weight="true"
       only_selected="false" />
    <inkscape:path-effect
       effect="skeletal"
       id="path-effect4855"
       is_visible="true"
       lpeversion="1"
       pattern="M 0,4.9921382 C 0,2.2364779 2.2364779,0 4.9921382,0 c 2.7556604,0 4.9921383,2.2364779 4.9921383,4.9921382 0,2.7556604 -2.2364779,4.9921383 -4.9921383,4.9921383 C 2.2364779,9.9842765 0,7.7477986 0,4.9921382 Z"
       copytype="single_stretched"
       prop_scale="1"
       scale_y_rel="false"
       spacing="0"
       normal_offset="0"
       tang_offset="0"
       prop_units="false"
       vertical_pattern="false"
       hide_knot="false"
       fuse_tolerance="0" />
    <inkscape:path-effect
       effect="skeletal"
       id="path-effect4818"
       is_visible="true"
       lpeversion="1"
       pattern="M 0,4.9921382 C 0,2.2364779 2.2364779,0 4.9921382,0 c 2.7556604,0 4.9921383,2.2364779 4.9921383,4.9921382 0,2.7556604 -2.2364779,4.9921383 -4.9921383,4.9921383 C 2.2364779,9.9842765 0,7.7477986 0,4.9921382 Z"
       copytype="single_stretched"
       prop_scale="1"
       scale_y_rel="false"
       spacing="0"
       normal_offset="0"
       tang_offset="0"
       prop_units="false"
       vertical_pattern="false"
       hide_knot="false"
       fuse_tolerance="0" />
    <inkscape:path-effect
       effect="powerstroke"
       id="path-effect4746"
       is_visible="true"
       lpeversion="1"
       offset_points="0.5,0.5"
       not_jump="true"
       sort_points="true"
       interpolator_type="CentripetalCatmullRom"
       interpolator_beta="0.75"
       start_linecap_type="round"
       linejoin_type="spiro"
       miter_limit="4"
       scale_width="1"
       end_linecap_type="round" />
    <inkscape:path-effect
       effect="simplify"
       id="path-effect4744"
       is_visible="true"
       lpeversion="1"
       steps="1"
       threshold="0.0032025118"
       smooth_angles="0"
       helper_size="0"
       simplify_individual_paths="false"
       simplify_just_coalesce="false"
       step="1" />
    <inkscape:path-effect
       effect="skeletal"
       id="path-effect4447"
       is_visible="true"
       lpeversion="1"
       pattern="M 0,4.9921382 C 0,2.2364779 2.2364779,0 4.9921382,0 c 2.7556604,0 4.9921383,2.2364779 4.9921383,4.9921382 0,2.7556604 -2.2364779,4.9921383 -4.9921383,4.9921383 C 2.2364779,9.9842765 0,7.7477986 0,4.9921382 Z"
       copytype="single_stretched"
       prop_scale="1"
       scale_y_rel="false"
       spacing="0"
       normal_offset="0"
       tang_offset="0"
       prop_units="false"
       vertical_pattern="false"
       hide_knot="false"
       fuse_tolerance="0" />
    <inkscape:path-effect
       effect="skeletal"
       id="path-effect4443"
       is_visible="true"
       lpeversion="1"
       pattern="M 0,4.9921382 C 0,2.2364779 2.2364779,0 4.9921382,0 c 2.7556604,0 4.9921383,2.2364779 4.9921383,4.9921382 0,2.7556604 -2.2364779,4.9921383 -4.9921383,4.9921383 C 2.2364779,9.9842765 0,7.7477986 0,4.9921382 Z"
       copytype="single_stretched"
       prop_scale="1"
       scale_y_rel="false"
       spacing="0"
       normal_offset="0"
       tang_offset="0"
       prop_units="false"
       vertical_pattern="false"
       hide_knot="false"
       fuse_tolerance="0" />
    <inkscape:path-effect
       effect="skeletal"
       id="path-effect4439"
       is_visible="true"
       lpeversion="1"
       pattern="M 0,4.9921382 C 0,2.2364779 2.2364779,0 4.9921382,0 c 2.7556604,0 4.9921383,2.2364779 4.9921383,4.9921382 0,2.7556604 -2.2364779,4.9921383 -4.9921383,4.9921383 C 2.2364779,9.9842765 0,7.7477986 0,4.9921382 Z"
       copytype="single_stretched"
       prop_scale="1"
       scale_y_rel="false"
       spacing="0"
       normal_offset="0"
       tang_offset="0"
       prop_units="false"
       vertical_pattern="false"
       hide_knot="false"
       fuse_tolerance="0" />
    <inkscape:path-effect
       effect="skeletal"
       id="path-effect4435"
       is_visible="true"
       lpeversion="1"
       pattern="M 0,4.9921382 C 0,2.2364779 2.2364779,0 4.9921382,0 c 2.7556604,0 4.9921383,2.2364779 4.9921383,4.9921382 0,2.7556604 -2.2364779,4.9921383 -4.9921383,4.9921383 C 2.2364779,9.9842765 0,7.7477986 0,4.9921382 Z"
       copytype="single_stretched"
       prop_scale="1"
       scale_y_rel="false"
       spacing="0"
       normal_offset="0"
       tang_offset="0"
       prop_units="false"
       vertical_pattern="false"
       hide_knot="false"
       fuse_tolerance="0" />
    <filter
       inkscape:collect="always"
       style="color-interpolation-filters:sRGB;"
       id="filter24309"
       x="-0.12970178"
       y="-0.062373263"
       width="1.2649841"
       height="1.1265801"
       inkscape:label="Blur">
      <feGaussianBlur
         inkscape:collect="always"
         stdDeviation="3.0030534"
         id="feGaussianBlur24311"
         result="fbSourceGraphic" />
      <feColorMatrix
         result="fbSourceGraphicAlpha"
         in="fbSourceGraphic"
         values="0 0 0 -1 0 0 0 0 -1 0 0 0 0 -1 0 0 0 0 1 0"
         id="feColorMatrix31225" />
      <feGaussianBlur
         id="feGaussianBlur31227"
         stdDeviation="2 2"
         result="fbSourceGraphic"
         in="fbSourceGraphic" />
      <feColorMatrix
         result="fbSourceGraphicAlpha"
         in="fbSourceGraphic"
         values="0 0 0 -1 0 0 0 0 -1 0 0 0 0 -1 0 0 0 0 1 0"
         id="feColorMatrix31247" />
      <feGaussianBlur
         id="feGaussianBlur31249"
         stdDeviation="2 2"
         result="fbSourceGraphic"
         in="fbSourceGraphic" />
      <feColorMatrix
         result="fbSourceGraphicAlpha"
         in="fbSourceGraphic"
         values="0 0 0 -1 0 0 0 0 -1 0 0 0 0 -1 0 0 0 0 1 0"
         id="feColorMatrix31269" />
      <feGaussianBlur
         id="feGaussianBlur31271"
         stdDeviation="2 2"
         result="fbSourceGraphic"
         in="fbSourceGraphic" />
      <feColorMatrix
         result="fbSourceGraphicAlpha"
         in="fbSourceGraphic"
         values="0 0 0 -1 0 0 0 0 -1 0 0 0 0 -1 0 0 0 0 1 0"
         id="feColorMatrix31291" />
      <feGaussianBlur
         id="feGaussianBlur31293"
         stdDeviation="2 2"
         result="blur"
         in="fbSourceGraphic" />
    </filter>
    <filter
       inkscape:collect="always"
       style="color-interpolation-filters:sRGB"
       id="filter33169"
       x="-1.6522578"
       y="-0.80609642"
       width="4.313981"
       height="2.617868">
      <feGaussianBlur
         inkscape:collect="always"
         stdDeviation="107.66285"
         id="feGaussianBlur33171" />
    </filter>
  </defs>
  <g
     inkscape:label="Layer 1"
     inkscape:groupmode="layer"
     id="layer1">
    <text
       xml:space="preserve"
       style="font-style:normal;font-weight:normal;font-size:10.5833px;line-height:1.25;font-family:sans-serif;fill:#000000;fill-opacity:1;stroke:none;stroke-width:0.264583"
       x="16.825123"
       y="253.10837"
       id="text12259"><tspan
         sodipodi:role="line"
         id="tspan12257"
         style="stroke-width:0.264583"
         x="16.825123"
         y="253.10837" /></text>
    <path
       style="fill:#000000;stroke:none;stroke-width:0.264583px;stroke-linecap:butt;stroke-linejoin:miter;stroke-opacity:1"
       d="m 369.97385,118.8206 c -0.14414,-0.17775 1.15211,-1.77246 4.40843,-3.40127 3.19641,-1.59885 8.66884,-3.17743 15.42057,-1.9287 6.42468,1.17303 13.98197,4.80688 19.53485,11.94009 4.72683,6.08965 7.78382,14.26955 7.88612,23.27762 0.0565,3.86001 -0.48283,7.91229 -1.94085,11.7882 -1.30708,3.48642 -3.46939,6.81526 -6.53869,9.33005 -0.79115,0.63526 -1.62424,1.20822 -2.49115,1.7218 -2.60794,1.54501 -5.46683,2.52027 -8.30006,3.05905 -4.28937,0.83076 -8.60932,0.78392 -12.67838,0.14467 -4.41441,-0.68537 -8.58397,-2.07027 -12.31138,-4.06376 -3.85807,-2.05417 -7.17668,-4.78842 -9.6355,-8.08529 -5.67134,-7.75645 -5.99186,-17.23129 -4.85547,-23.91649 0.78072,-4.71622 2.30123,-8.60774 3.96171,-11.62031 3.4854,-6.34288 7.33285,-8.50088 7.5398,-8.24566 0.20696,0.25522 -3.06569,2.82709 -5.91846,9.06263 -1.35437,2.97097 -2.5537,6.70198 -3.08183,11.1602 -0.71606,6.29454 -0.13274,15.05504 5.0053,21.54855 2.17068,2.80581 5.15463,5.13655 8.64168,6.94512 3.38374,1.74622 7.18315,2.94784 11.21017,3.53945 3.71476,0.53825 7.60703,0.56333 11.38932,-0.19425 2.48549,-0.50783 4.94486,-1.33496 7.09879,-2.60544 0.71632,-0.42252 1.39419,-0.89132 2.0257,-1.40968 2.4669,-1.97448 4.26244,-4.76327 5.41481,-7.71643 1.29091,-3.3216 1.7881,-6.92033 1.79224,-10.4163 -0.0201,-8.20657 -2.63597,-15.73254 -6.78988,-21.34957 -4.82523,-6.54753 -11.5945,-10.15906 -17.44867,-11.53137 -6.12539,-1.42119 -11.23555,-0.40349 -14.41802,0.75246 -3.22155,1.17015 -4.77701,2.39238 -4.92115,2.21463 z"
       id="path16516"
       inkscape:path-effect="#path-effect16518;#path-effect16520"
       inkscape:original-d="m 362.98882,106.0201 c 17.8341,4.00313 35.66822,8.0062 53.50236,12.0092 0.95127,20.76006 1.90243,41.52015 2.85346,62.28022 -22.64934,-3.16512 -45.29868,-6.33034 -67.948,-9.49563 3.86421,-21.59792 7.72826,-43.19584 11.59218,-64.79379 z" />
    <path
       style="fill:#cccccc;stroke:none;stroke-width:0.264583px;stroke-linecap:butt;stroke-linejoin:miter;stroke-opacity:1"
       d="m 394.81008,173.1982 c -0.0665,0.33978 -1.80554,0.76584 -4.55363,-0.7581 -2.32449,-1.32344 -4.2436,-3.28678 -6.6621,-6.31842 -3.13633,-3.87053 -6.48503,-8.56238 -9.90344,-14.11734 -0.39571,-0.64048 -0.79427,-1.29248 -1.19118,-1.95303 -2.94074,-4.89413 -5.21827,-9.33616 -6.74869,-13.95706 0,0 0,0 0,-10e-6 -1.41624,-4.11584 -1.61688,-7.79542 -0.68378,-10.88476 1.54696,-4.74104 4.08309,-6.22162 4.44816,-5.95948 0.36506,0.26214 -1.58426,2.62174 -2.13812,6.52114 -0.45225,2.62373 0.10898,5.4373 1.54295,9.17293 0,0 0,1e-5 0,1e-5 1.70071,4.27644 3.93601,8.27267 6.85296,13.14356 0.38771,0.64743 0.78025,1.29905 1.16405,1.93646 3.38864,5.60536 6.30456,10.11039 9.11707,14.27378 2.26227,3.28945 3.38705,4.95279 5.28593,6.57937 1.78401,1.61899 3.53634,1.98116 3.46982,2.32095 z"
       id="path16561"
       inkscape:path-effect="#path-effect16563;#path-effect16565"
       inkscape:original-d="m 394.81008,173.1982 c -2.42893,-1.46954 -5.45392,2.65007 -6.15279,-1.20444 -9.06563,-13.84199 -18.1313,-27.68398 -27.19702,-41.52594 2.6852,-3.73921 5.37024,-7.47848 8.05514,-11.21782" />
    <path
       style="fill:#8f8f8f;fill-opacity:0.704453;stroke:#000080;stroke-width:2.31776;filter:url(#filter24309)"
       d="M 385.69334,894.2492 C 297.24856,876.91857 224.16748,803.31877 207.30615,714.70823 188.87204,633.37514 194.79813,546.67859 221.48798,467.86075 c 1.3302,87.32732 40.65469,169.61176 77.81666,247.53819 31.32734,63.50572 66.13561,125.92264 109.87849,181.78736 -7.92629,0.14456 -15.75068,-1.39695 -23.48979,-2.9371 z"
       id="path16937"
       transform="matrix(0.12900713,0,0,0.10101303,335.88095,80.605303)" />
    <path
       style="fill:#000000;fill-opacity:1;stroke:#000080;stroke-width:0.264583"
       d="m 388.32502,174.88863 c -13.30252,-1.24224 -25.08254,-9.10568 -28.22277,-19.24567 -3.33071,-10.14615 -1.84164,-21.28903 4.18888,-30.66746 0.77632,-1.37359 4.56005,-5.7322 2.23484,-1.84193 -2.94947,7.609 -5.57934,15.5065 -4.56638,23.53003 0.65049,7.89783 4.57904,16.20959 13.47452,20.69234 4.35627,2.50566 9.93906,3.60335 15.0452,4.17926 -0.38137,2.74632 9.53057,1.0495 3.095,0.0815 2.19324,-0.6654 7.05526,-0.95385 9.71777,-2.5938 8.42985,-4.2658 10.38752,-12.77158 10.49834,-20.04675 0.22465,-11.29421 -4.44132,-23.7013 -16.66085,-30.63355 -7.44085,-4.36846 -18.55667,-4.63029 -25.89934,0.0136 0.89189,-2.21328 6.76382,-4.72793 10.84913,-5.08671 12.0695,-1.35998 23.33708,5.19884 28.88557,13.08871 7.12891,9.72421 9.00367,21.57014 5.94879,32.43769 -1.85304,6.71051 -7.56995,13.15166 -16.36089,15.1927 -3.89411,1.0875 -8.14807,1.06956 -12.22781,0.90004 z"
       id="path17087" />
    <path
       style="fill:#000000;stroke:none;stroke-width:0.264583px;stroke-linecap:butt;stroke-linejoin:miter;stroke-opacity:1"
       d="m 246.86803,92.044577 c 0.88878,0.03519 1.65132,0.964295 2.31686,2.520151 0.65868,1.539832 1.14911,3.658303 1.92287,5.683642 0.34013,0.8278 0.64159,1.55789 0.99095,1.87432 0.2207,0.16597 0.38992,0.29016 0.41564,0.1999 0.19163,0.18218 0.4908,0.26894 0.91027,0.29993 1.06445,0.0786 2.82036,-0.164 4.75522,-0.10491 0,0 0,0 0,0 6.52924,-0.31316 11.80843,-0.49322 12.40594,1.75854 0.53486,2.01564 -3.58709,5.33701 -11.00255,7.1982 0,0 0,0 0,0 -1.87848,0.65658 -4.49335,1.12546 -7.65361,0.53095 -1.24473,-0.23416 -2.51781,-0.62636 -3.7899,-1.19897 -1.95361,-1.11117 -3.29677,-2.64622 -4.07024,-4.30225 -0.85668,-1.90179 -1.13106,-3.60753 -1.13232,-4.9916 -0.036,-3.146913 0.69205,-5.611951 1.4214,-7.109238 0.7557,-1.551376 1.649,-2.39273 2.50947,-2.358665 z"
       id="path24124"
       inkscape:path-effect="#path-effect24126;#path-effect24128"
       inkscape:original-d="m 246.86803,92.044577 c -0.2468,6.24086 -0.49386,12.481463 -0.74118,18.721813 8.1534,-2.16319 16.30621,-4.32656 24.45893,-6.49023" />
    <path
       style="fill:#000000;stroke:none;stroke-width:0.264583px;stroke-linecap:butt;stroke-linejoin:miter;stroke-opacity:1"
       d="m 246.86803,92.044572 c -0.22306,-1.913361 4.32768,-3.831537 10.87967,-5.635073 1.05287,-0.292291 2.02067,-0.514 2.60788,-0.786953 0.0659,-0.04134 -0.022,-0.01146 -0.27621,0.07882 0.0596,-0.390911 -0.57591,0.229444 -1.96946,1.850583 0,0 -3e-5,3.8e-5 -3e-5,3.8e-5 -0.43265,3.680634 0.0521,5.675515 1.51773,5.989462 0.87642,0.440261 1.25973,0.627905 1.15463,0.522854 0.0314,0.01492 -0.1799,0.04254 -0.64948,0.0092 -0.62996,-0.01656 -1.26483,-0.02056 -1.99651,-0.03195 -0.80693,-0.01176 -1.64161,-0.02654 -2.48425,-0.04684 -1.3169,-0.03172 -2.60762,-0.07583 -3.88498,-0.142671 0,0 -1e-5,0 -1e-5,0 -10.18018,-0.531901 -17.99316,-2.43818 -17.99316,-4.802916 0,-2.364745 7.76768,-4.396271 18.10869,-4.678117 0,0 0,0 0,0 1.28403,-0.03537 2.62565,-0.04336 4.00268,-0.0099 0.8891,0.02163 1.7694,0.05997 2.64114,0.116776 0.76591,0.0494 1.55342,0.115427 2.36902,0.215716 0.4158,0.03865 1.0757,0.130311 1.9529,0.338746 0.0929,-0.05986 0.67969,0.173046 1.72643,0.721525 1.54207,0.36252 2.09314,2.450187 1.61723,6.210073 0,0 -4e-5,4e-5 -4e-5,4e-5 -1.46148,1.745502 -2.24213,2.424013 -2.31077,2.09167 -0.49644,0.200512 -0.83891,0.307908 -1.02684,0.338922 -1.57077,0.339038 -2.87676,0.404361 -3.85812,0.41436 -7.10055,0.23531 -11.92595,-1.030085 -12.12814,-2.764362 z"
       id="path24130"
       inkscape:path-effect="#path-effect24132;#path-effect24134"
       inkscape:original-d="m 246.86803,92.044577 c 8.565,-0.99825 17.12974,-1.99674 25.69423,-2.99549 -12.92947,2.5e-4 -25.85868,2.5e-4 -38.7884,0" />
    <path
       style="fill:#000000;stroke:none;stroke-width:0.264583px;stroke-linecap:butt;stroke-linejoin:miter;stroke-opacity:1"
       d="m 244.39743,87.052085 c -1.37046,-0.521683 -2.42947,-3.660958 -0.75186,-8.257838 0.79939,-2.233574 2.53108,-4.804126 5.68398,-6.673738 0.66691,-0.345671 1.34555,-0.642296 2.03021,-0.891064 2.70842,-0.984097 5.18774,-1.109114 7.14136,-0.910256 0,0 0,1e-6 0,1e-6 5.7368,0.418473 9.19401,2.693334 9.11996,4.501312 -0.088,2.148881 -3.90116,3.275633 -8.60609,4.324537 0,0 0,10e-7 0,10e-7 -1.62086,0.409743 -3.20691,0.671534 -4.40371,1.096441 -0.30309,0.107607 -0.57385,0.224673 -0.81616,0.357868 -0.94368,0.300396 -2.08358,1.338472 -3.14878,2.302406 -2.55551,2.472484 -4.40726,4.851382 -6.24891,4.15033 z"
       id="path24136"
       inkscape:path-effect="#path-effect24138;#path-effect24140"
       inkscape:original-d="m 244.39743,87.052087 c 1.64732,-4.32656 3.29439,-8.65338 4.9412,-12.98046 6.09452,0.24989 12.18854,0.49951 18.28244,0.74888" />
    <path
       style="fill:#000000;stroke:none;stroke-width:0.264583px;stroke-linecap:butt;stroke-linejoin:miter;stroke-opacity:1"
       d="m 302.45651,77.816 c 0.69382,0.641665 -0.0134,2.613618 -1.71555,5.549639 -1.32664,2.28825 -4.72737,7.291208 -6.23695,11.094546 -0.51919,1.642881 -1.09212,3.060024 -0.70393,3.589799 -0.22138,-0.01638 0.4322,0.271739 1.04146,0.662357 0.793,0.38221 1.73098,0.626113 2.80787,0.798571 1.33001,0.212993 2.87947,0.31571 4.43614,0.436603 3.22994,0.129725 6.00256,0.06968 8.5482,-0.425592 0,0 0,0 0,0 1.88412,-0.51623 3.16383,-0.679083 3.78959,-1.296943 -0.15077,-0.140962 0.44792,0.15423 0.63781,1.163022 0.61024,-0.08444 -0.40829,-0.438966 -1.54612,-1.195866 -3.2693,-1.66777 -5.53787,-2.462303 -5.37615,-3.651315 0.11113,-0.817012 2.45118,-1.879572 6.6993,-1.60226 1.25145,-0.113464 3.48509,0.173603 5.89634,2.662946 1.42717,2.862645 1.27028,5.901893 -0.52557,7.653233 -2.03353,2.4369 -4.6921,4.0019 -7.31758,4.69397 0,0 0,0 0,0 -3.49381,1.12158 -7.22016,1.59026 -11.06182,1.52983 -1.79121,0.0317 -3.7873,-0.0743 -5.88989,-0.48025 -1.67981,-0.32432 -3.37645,-0.83033 -5.05605,-1.57108 -3.11729,-1.30102 -5.44596,-4.21743 -6.22661,-8.032626 -0.25506,-3.922136 0.93844,-6.89422 2.28131,-8.849981 3.24295,-5.262009 7.47695,-8.792914 10.08365,-10.615298 2.81144,-1.965515 4.7807,-2.718008 5.43455,-2.113305 z"
       id="path24142"
       inkscape:path-effect="#path-effect24144;#path-effect24146"
       inkscape:original-d="m 302.45651,77.815997 c -4.69388,5.07594 -9.38802,10.15164 -14.08241,15.22707 2.5e-4,3.99433 2.5e-4,7.988233 0,11.981973 8.97694,0.0835 17.95327,0.16667 26.92953,0.24962 1.89442,-2.99529 3.7885,-5.990723 5.68238,-8.986473 -4.28221,-0.58221 -8.56449,-1.16466 -12.84712,-1.74737" />
    <path
       style="fill:#000000;stroke:none;stroke-width:0.264583px;stroke-linecap:butt;stroke-linejoin:miter;stroke-opacity:1"
       d="m 313.15641,74.015592 c 0.21649,0.821339 -0.10213,1.696201 -0.80908,2.601692 -0.78188,1.00145 -1.66173,1.652819 -2.64593,2.614411 -0.40603,0.528514 -0.3249,0.422064 0.69251,-0.320002 0.59894,-0.570081 0.82857,-1.613079 0.69156,-3.23145 -0.57242,-1.379283 -0.95829,-2.118671 -1.22823,-2.104009 -0.27599,-0.204212 -0.0785,-0.36171 0.76181,-0.03361 0.44629,0.109844 0.93466,0.230903 1.43483,0.36252 0.57212,0.150553 1.15035,0.312409 1.73862,0.496725 0,0 0,10e-7 0,10e-7 5.11156,1.592446 8.97443,4.193704 8.50514,6.60318 -0.45646,2.343541 -4.95332,3.596041 -10.6723,2.650922 0,0 0,0 0,0 -0.64567,-0.104898 -1.32907,-0.246212 -2.03985,-0.435602 -0.63153,-0.168276 -1.26162,-0.368385 -1.88572,-0.603341 -0.67961,-0.161203 -1.89753,-0.73531 -3.34952,-1.838245 -0.56788,-0.212416 -1.23361,-1.229364 -1.89374,-2.962784 -0.20876,-1.908223 0.12641,-3.257639 0.89754,-4.062911 1.65899,-1.604911 2.72676,-2.050107 3.2209,-1.916585 3.87404,-0.696075 6.21001,0.769813 6.58146,2.179085 z"
       id="path24148"
       inkscape:path-effect="#path-effect24150;#path-effect24152"
       inkscape:original-d="m 313.15641,74.015587 c -3.788,0.99875 -7.57625,1.99724 -11.36476,2.99549 6.83572,1.33161 13.6709,2.66291 20.50598,3.99398" />
    <use
       x="0"
       y="0"
       xlink:href="#path24142"
       id="use24234"
       transform="translate(47.435508,0.9984956)"
       width="100%"
       height="100%"
       style="stroke-width:1.04146" />
    <use
       x="0"
       y="0"
       xlink:href="#path24148"
       id="use24236"
       transform="translate(48.100367,1.8034156)"
       width="100%"
       height="100%"
       style="stroke-width:1.04146" />
    <path
       style="fill:#8f8f8f;fill-opacity:0.704453;stroke:#000080;stroke-width:0.264582"
       d="m 384.9363,170.16301 c -9.79333,-1.853 -18.1508,-7.90238 -20.72233,-15.4521 -2.63557,-6.42496 -2.54477,-13.39089 -1.19904,-20.01988 0.6531,-4.09957 1.7531,-0.34872 2.15483,1.57962 1.68441,5.45047 4.77892,10.43951 7.75318,15.57283 3.17913,5.30178 6.8848,10.37141 10.91921,15.30887 0.0814,0.54834 4.33352,3.77488 1.09415,3.01066 z"
       id="path31404" />
    <path
       style="fill:#8f8f8f;fill-opacity:0.704453;stroke:#000080;stroke-width:0.264582"
       d="m 384.30577,169.92074 c -10.73048,-2.14201 -19.03356,-9.50082 -20.89423,-17.90892 -1.62731,-6.2131 -1.57422,-12.76408 0.24063,-18.94686 1.53287,1.88153 1.95756,6.27949 3.68577,8.9236 4.7696,9.5967 10.79188,18.86134 18.2798,27.37438 1.24218,1.20194 -0.57857,0.77618 -1.31197,0.5578 z"
       id="path31443" />
    <path
       style="fill:#8f8f8f;fill-opacity:0.704453;stroke:#000080;stroke-width:0.264582"
       d="m 385.12546,170.00237 c -11.10985,-2.05011 -19.82255,-9.56697 -21.64261,-18.26044 -1.54288,-5.99631 -1.39395,-12.28543 0.15778,-18.27261 1.29975,1.17155 1.99902,6.18874 3.60127,8.6327 4.81854,9.71389 11.03184,19.00196 18.48815,27.66196 0.5715,0.26921 -0.48013,0.59379 -0.60459,0.23839 z"
       id="path31482" />
    <path
       style="fill:#8f8f8f;fill-opacity:0.704453;stroke:#000080;stroke-width:0.264582"
       d="m 384.11661,169.65852 c -10.71795,-2.28135 -18.82598,-9.76172 -20.57198,-18.19266 -1.40564,-5.99421 -1.28773,-12.26721 0.31125,-18.23127 2.81222,10.08102 8.8186,19.42549 15.21615,28.3958 2.0485,2.84338 4.59303,5.6358 6.59682,8.38095 l -0.49806,-0.10547 z"
       id="path31521" />
    <path
       style="fill:#8f8f8f;fill-opacity:0.704453;stroke:#000080;stroke-width:0.264582"
       d="m 383.29692,169.33579 c -10.15608,-2.4412 -17.78467,-9.61608 -19.56188,-17.68321 -1.36419,-5.42797 -1.13904,-11.07932 -0.25511,-16.54261 0.57929,-3.34044 1.3478,3.10333 2.18291,3.89791 4.63963,10.91633 11.71567,21.12449 19.71483,30.7693 -0.7387,0.0432 -1.37697,-0.35667 -2.08075,-0.44139 z"
       id="path31560" />
    <path
       style="fill:#8f8f8f;fill-opacity:0.704453;stroke:#000080;stroke-width:0.264582"
       d="m 384.49493,169.54655 c -9.84651,-2.17298 -17.81671,-8.59843 -20.13441,-16.33486 -2.03572,-6.18083 -1.7354,-12.73051 -0.51322,-18.98741 4.07706,12.7362 12.31885,24.39953 21.25108,35.44544 z"
       id="path31599" />
    <path
       style="fill:#8f8f8f;fill-opacity:0.704453;stroke:#000080;stroke-width:0.264582"
       d="m 384.30577,169.39871 c -8.95628,-2.15338 -16.54539,-7.71993 -19.22312,-14.74411 -2.65313,-6.4438 -2.35337,-13.39431 -1.23805,-20.02685 4.09841,12.49929 12.19839,23.93541 20.88825,34.83448 z"
       id="path31638" />
    <path
       style="fill:#808080;fill-opacity:0.704453;stroke:#000080;stroke-width:0.264582"
       d="m 382.72944,168.82783 c -6.21605,-1.72387 -11.43493,-5.27305 -14.90816,-9.57242 -5.1703,-7.20971 -5.26651,-15.82392 -3.94994,-23.78908 4.44565,12.02781 11.99955,23.23046 20.58194,33.78429 -0.29134,0.22087 -1.41496,-0.52655 -1.72384,-0.42279 z"
       id="path31753" />
    <path
       style="fill:#808080;fill-opacity:0.704453;stroke:#000080;stroke-width:0.999997"
       d=""
       id="path31829"
       transform="scale(0.26458333)" />
    <path
       style="fill:#808080;fill-opacity:0.704453;stroke:#000080;stroke-width:0.999997"
       d=""
       id="path31868"
       transform="scale(0.26458333)" />
    <path
       style="fill:#808080;fill-opacity:0.704453;stroke:#000080;stroke-width:0.264582"
       d="m 382.72944,168.72407 c -6.56122,-1.95447 -12.29453,-5.76969 -15.51003,-10.62692 -4.50841,-6.88585 -4.27318,-14.8534 -3.33455,-22.33408 4.3655,11.86349 11.8723,22.87005 20.23175,33.31721 -0.50742,0.07 -0.90706,-0.33401 -1.38717,-0.35621 z"
       id="path31907" />
    <path
       style="mix-blend-mode:normal;fill:#80802c;fill-opacity:0.704453;stroke:#000080;stroke-width:2.31774;filter:url(#filter33169)"
       d="m 360.42665,870.00474 c -45.4706,-16.98947 -82.3104,-51.14989 -109.67576,-90.42194 -40.36132,-68.17343 -39.8215,-149.88277 -33.37242,-226.25521 13.22327,35.90792 28.38881,84.20919 46.85772,122.87768 29.40079,69.29061 68.94983,133.4454 106.96573,198.16494 l -3.46394,-1.28903 z"
       id="path31946"
       transform="matrix(0.12900713,0,0,0.10101303,336.79929,81.453977)" />
    <path
       style="fill:#000000;stroke:none;stroke-opacity:1;stroke-linejoin:miter;stroke-linecap:butt;stroke-width:1px"
       d="M 1059.6251,338.21981 V 477.02678"
       id="path1051" />
    <rect
       style="fill:none;fill-opacity:0.704453;stroke:#000080;stroke-width:0.264583"
       id="rect1585"
       width="227.62128"
       height="138.79689"
       x="224.78439"
       y="42.692699"
       ry="7.2417488" />
  </g>
</svg>
